<?xml version="1.0" encoding="UTF-8" standalone="no"?>
<svg
   xmlns:dc="http://purl.org/dc/elements/1.1/"
   xmlns:cc="http://creativecommons.org/ns#"
   xmlns:rdf="http://www.w3.org/1999/02/22-rdf-syntax-ns#"
   xmlns:svg="http://www.w3.org/2000/svg"
   xmlns="http://www.w3.org/2000/svg"
   xmlns:sodipodi="http://sodipodi.sourceforge.net/DTD/sodipodi-0.dtd"
   xmlns:inkscape="http://www.inkscape.org/namespaces/inkscape"
   version="1.1"
   id="svg2"
   xml:space="preserve"
   width="367.73334"
   height="283.17334"
   viewBox="0 0 367.73334 283.17334"
   sodipodi:docname="CF Group_Baseline.eps"><metadata
     id="metadata8"><rdf:RDF><cc:Work
         rdf:about=""><dc:format>image/svg+xml</dc:format><dc:type
           rdf:resource="http://purl.org/dc/dcmitype/StillImage" /></cc:Work></rdf:RDF></metadata><defs
     id="defs6"><clipPath
       clipPathUnits="userSpaceOnUse"
       id="clipPath80"><path
         d="m 2651.56,958.582 c -0.01,0.789 0.01,1.578 -0.02,2.367 -0.29,7 -1.28,14.09 -2.78,21.09 -0.02,0.09 -0.05,0.191 -0.07,0.293 -0.72,3.34 -1.56,6.629 -2.48,9.898 -0.18,0.668 -0.39,1.309 -0.58,1.981 -0.79,2.687 -1.62,5.34 -2.5,7.939 -0.27,0.8 -0.54,1.58 -0.82,2.37 -0.85,2.43 -1.72,4.8 -2.63,7.12 -0.31,0.81 -0.62,1.61 -0.93,2.39 -0.89,2.21 -1.78,4.33 -2.68,6.4 -0.34,0.79 -0.67,1.6 -1.01,2.36 -0.78,1.78 -1.55,3.43 -2.34,5.08 -6.68,14.29 -12.59,23.84 -12.59,23.84 1.25,2.83 2.45,5.75 3.64,8.7 0.04,0.1 0.08,0.2 0.12,0.29 0,0.01 0,0.03 0,0.04 l 0.01,0.01 c 0,-0.02 -0.01,-0.04 -0.01,-0.05 0.27,0.68 0.52,1.39 0.8,2.09 0.62,1.62 1.26,3.24 1.86,4.89 0.35,0.98 0.7,1.98 1.04,2.97 0.56,1.6 1.12,3.18 1.66,4.8 0.35,1.07 0.67,2.17 1.01,3.25 0.49,1.58 1,3.15 1.46,4.75 0.36,1.24 0.67,2.5 1.01,3.74 0.41,1.49 0.82,2.97 1.21,4.47 0.4,1.63 0.75,3.28 1.12,4.92 0.26,1.18 0.56,2.34 0.8,3.52 0.59,2.84 1.12,5.72 1.59,8.62 0.13,0.75 0.21,1.51 0.32,2.27 0.34,2.19 0.66,4.38 0.92,6.6 0.11,0.94 0.17,1.9 0.27,2.84 0.2,2.06 0.42,4.12 0.56,6.21 0.07,1.03 0.09,2.07 0.14,3.11 0.11,2.01 0.21,4.02 0.24,6.06 0.02,1.12 -0.01,2.26 -0.01,3.39 0,1.97 0,3.94 -0.08,5.94 -0.03,1.17 -0.12,2.36 -0.19,3.53 -0.11,1.96 -0.22,3.92 -0.4,5.89 -0.11,1.23 -0.27,2.47 -0.41,3.71 -0.22,1.95 -0.44,3.9 -0.73,5.86 -0.19,1.25 -0.42,2.5 -0.64,3.75 -0.33,1.96 -0.67,3.93 -1.08,5.91 -0.28,1.27 -0.59,2.55 -0.88,3.83 -0.46,1.97 -0.93,3.93 -1.47,5.9 -0.36,1.31 -0.76,2.62 -1.15,3.94 -0.57,1.94 -1.17,3.88 -1.82,5.83 -0.46,1.35 -0.96,2.71 -1.46,4.06 -0.7,1.93 -1.44,3.86 -2.23,5.8 -0.55,1.37 -1.15,2.74 -1.74,4.11 -0.85,1.93 -1.72,3.85 -2.65,5.79 -0.66,1.38 -1.37,2.77 -2.07,4.16 -0.99,1.92 -2.01,3.84 -3.08,5.76 -0.78,1.41 -1.59,2.8 -2.42,4.2 -1.13,1.92 -2.3,3.84 -3.53,5.76 -0.89,1.4 -1.81,2.8 -2.76,4.21 -1.29,1.91 -2.63,3.82 -4.01,5.73 -1.03,1.42 -2.06,2.83 -3.14,4.24 -1.44,1.91 -2.96,3.8 -4.5,5.7 -1.15,1.42 -2.3,2.83 -3.5,4.24 -1.62,1.9 -3.31,3.79 -5.03,5.68 -1.28,1.41 -2.57,2.83 -3.91,4.25 -1.79,1.88 -3.66,3.75 -5.55,5.62 -1.42,1.42 -2.84,2.83 -4.33,4.25 -1.98,1.87 -4.06,3.74 -6.14,5.61 -1.56,1.4 -3.09,2.79 -4.71,4.18 -2.18,1.88 -4.47,3.74 -6.75,5.6 -1.71,1.39 -3.37,2.77 -5.14,4.15 -2.37,1.86 -4.88,3.71 -7.38,5.56 -1.85,1.37 -3.63,2.73 -5.55,4.09 -2.61,1.87 -5.37,3.72 -8.11,5.57 -1.97,1.32 -3.87,2.66 -5.89,3.98 -2.88,1.87 -5.92,3.73 -8.93,5.59 -2.08,1.28 -4.08,2.57 -6.22,3.86 -3.22,1.91 -6.62,3.82 -9.99,5.72 -2.11,1.19 -4.12,2.39 -6.29,3.58 -3.82,2.09 -7.84,4.16 -11.84,6.23 -1.9,0.98 -3.69,1.97 -5.64,2.94 -6.02,3.03 -12.24,6.04 -18.69,9.02 -110.02,38.62 -229.53,58.33 -351.11,56.79 -0.11,0.12 -0.24,0.27 -0.34,0.4 -0.42,0.5 -0.88,1.04 -1.35,1.58 -0.55,0.63 -1.1,1.27 -1.7,1.97 -0.52,0.59 -1.07,1.2 -1.64,1.84 -0.66,0.74 -1.34,1.49 -2.06,2.28 -0.65,0.71 -1.31,1.42 -2.01,2.17 -0.76,0.81 -1.55,1.64 -2.37,2.49 -0.76,0.8 -1.52,1.6 -2.34,2.43 -0.88,0.9 -1.82,1.83 -2.76,2.78 -0.88,0.87 -1.75,1.74 -2.68,2.64 -1,0.96 -2.05,1.96 -3.1,2.96 -0.99,0.94 -1.96,1.86 -3,2.83 -1.12,1.03 -2.32,2.1 -3.5,3.16 -1.1,1 -2.17,1.97 -3.32,2.99 -1.29,1.13 -2.68,2.3 -4.03,3.45 -1.16,0.98 -2.26,1.94 -3.46,2.94 -2.11,1.75 -4.34,3.53 -6.59,5.32 -1.61,1.29 -3.3,2.58 -4.99,3.87 -1.73,1.32 -3.44,2.64 -5.26,3.98 -1.42,1.05 -2.94,2.11 -4.4,3.16 -1.72,1.23 -3.4,2.45 -5.19,3.67 -1.59,1.11 -3.26,2.2 -4.9,3.3 -1.78,1.19 -3.54,2.38 -5.39,3.57 -1.74,1.12 -3.55,2.24 -5.35,3.36 -1.87,1.15 -3.73,2.31 -5.66,3.47 -1.87,1.12 -3.79,2.23 -5.72,3.34 -1.99,1.14 -3.99,2.28 -6.04,3.41 -1.99,1.11 -4.04,2.2 -6.09,3.29 -2.1,1.1 -4.21,2.21 -6.37,3.3 -2.13,1.08 -4.28,2.14 -6.47,3.2 -2.21,1.08 -4.46,2.13 -6.74,3.17 -2.24,1.04 -4.5,2.07 -6.8,3.09 -2.36,1.03 -4.77,2.03 -7.18,3.04 -2.35,0.97 -4.7,1.95 -7.11,2.9 -2.5,0.99 -5.07,1.93 -7.64,2.88 -2.45,0.9 -4.87,1.82 -7.37,2.7 -2.71,0.94 -5.52,1.82 -8.29,2.73 -2.48,0.81 -4.91,1.63 -7.44,2.4 -3.17,0.96 -6.43,1.84 -9.67,2.74 -2.29,0.63 -4.5,1.31 -6.83,1.91 -5.47,1.42 -11.08,2.76 -16.79,3.99 -2.39,0.51 -4.87,0.94 -7.29,1.42 -3.54,0.7 -7.06,1.42 -10.68,2.04 -2.75,0.47 -5.59,0.86 -8.38,1.28 -3.44,0.53 -6.87,1.06 -10.38,1.51 -2.93,0.37 -5.93,0.67 -8.92,0.99 -3.5,0.38 -7,0.76 -10.57,1.06 -3.11,0.26 -6.28,0.45 -9.44,0.65 -3.57,0.23 -7.16,0.44 -10.81,0.59 -3.26,0.13 -6.57,0.21 -9.88,0.28 -3.69,0.07 -7.41,0.11 -11.18,0.1 -3.37,-0.01 -6.77,-0.06 -10.2,-0.14 -1.88,-0.05 -3.71,-0.01 -5.6,-0.08 0.17,-0.03 0.34,-0.07 0.51,-0.11 -19.32,-0.63 -39.44,-2.28 -60.56,-5.38 0,0 110.76,-59.12 141.38,-156.91 -22.69,-5.82 -45.32,-12.24 -67.77,-19.71 -17.26,-5.75 -34.16,-11.95 -50.74,-18.49 -0.78,-0.31 -1.58,-0.59 -2.36,-0.9 -16.01,-6.36 -31.64,-13.14 -46.99,-20.21 -1.25,-0.58 -2.52,-1.12 -3.76,-1.7 -14.94,-6.97 -29.52,-14.31 -43.81,-21.92 -1.5,-0.8 -3.02,-1.57 -4.51,-2.37 -14.02,-7.57 -27.68,-15.48 -41.05,-23.64 -1.59,-0.97 -3.2,-1.92 -4.79,-2.9 -13.19,-8.17 -26.03,-16.63 -38.57,-25.35 -1.57,-1.09 -3.16,-2.17 -4.71,-3.27 -12.44,-8.77 -24.54,-17.82 -36.31,-27.11 -1.45,-1.15 -2.92,-2.3 -4.36,-3.46 -11.74,-9.39 -23.14,-19.03 -34.18,-28.91 -1.28,-1.15 -2.55,-2.29 -3.82,-3.45 -11.06,-10.02 -21.8,-20.29 -32.14,-30.78 -1.05,-1.06 -2.08,-2.13 -3.12,-3.2 -10.43,-10.7 -20.5,-21.61 -30.17,-32.75 -0.77,-0.9 -1.52,-1.79 -2.29,-2.69 -9.81,-11.4 -19.23,-23.02 -28.22,-34.85 -0.48,-0.62 -0.93,-1.26 -1.41,-1.88 -9.18,-12.16 -17.95,-24.52 -26.26,-37.09 -0.16,-0.25 -0.31,-0.49 -0.47,-0.74 -42.86,-65.052 -73.87,-135.309 -91.75,-208.278 -0.04,-0.141 -0.09,-0.274 -0.12,-0.41 0.01,0.027 0.03,0.07 0.04,0.097 -2.25,-9.179 -4.35,-18.379 -6.18,-27.629 63.32,88.239 149.06,165.809 253.62,226.17 26.12,15.07 53.41,29.05 81.8,41.89 1.74,0.78 3.51,1.53 5.25,2.31 11.53,5.12 23.27,10.01 35.16,14.74 3.29,1.31 6.56,2.63 9.88,3.9 13.84,5.34 27.86,10.47 42.19,15.24 8.31,2.76 16.66,5.32 25.01,7.85 5.75,1.75 11.51,3.43 17.29,5.07 4.91,1.39 9.81,2.78 14.73,4.09 5.82,1.57 11.64,3.06 17.47,4.51 4.91,1.22 9.83,2.42 14.74,3.57 5.85,1.37 11.71,2.67 17.57,3.93 4.91,1.06 9.81,2.08 14.72,3.06 5.89,1.17 11.79,2.29 17.7,3.36 4.89,0.89 9.78,1.74 14.68,2.56 5.91,0.98 11.84,1.91 17.77,2.79 4.88,0.72 9.78,1.41 14.66,2.06 5.95,0.8 11.89,1.55 17.84,2.23 4.86,0.57 9.73,1.08 14.59,1.57 5.97,0.61 11.92,1.17 17.89,1.67 4.85,0.41 9.71,0.77 14.56,1.1 5.96,0.42 11.92,0.79 17.87,1.11 4.86,0.24 9.7,0.45 14.54,0.63 5.95,0.23 11.9,0.42 17.84,0.54 4.84,0.11 9.67,0.15 14.51,0.18 5.92,0.04 11.83,0.06 17.74,-0.01 4.86,-0.05 9.71,-0.16 14.55,-0.28 5.87,-0.14 11.73,-0.3 17.58,-0.55 4.85,-0.2 9.7,-0.46 14.54,-0.73 5.83,-0.33 11.66,-0.67 17.48,-1.09 4.82,-0.35 9.62,-0.76 14.43,-1.18 5.81,-0.5 11.61,-1.02 17.4,-1.62 4.8,-0.49 9.58,-1.06 14.36,-1.63 5.76,-0.67 11.5,-1.36 17.22,-2.13 4.79,-0.64 9.58,-1.37 14.36,-2.08 5.67,-0.85 11.33,-1.7 16.98,-2.64 4.78,-0.79 9.56,-1.67 14.32,-2.54 5.59,-1 11.19,-2.02 16.73,-3.11 4.8,-0.96 9.55,-1.99 14.32,-3 5.5,-1.18 11,-2.34 16.46,-3.61 4.75,-1.09 9.47,-2.27 14.18,-3.44 5.43,-1.33 10.87,-2.65 16.26,-4.08 4.72,-1.24 9.4,-2.57 14.09,-3.88 5.34,-1.49 10.69,-2.97 15.99,-4.55 4.68,-1.39 9.33,-2.88 13.98,-4.34 5.24,-1.64 10.48,-3.26 15.68,-4.99 4.67,-1.54 9.28,-3.18 13.91,-4.8 5.11,-1.78 10.25,-3.55 15.33,-5.41 4.64,-1.71 9.21,-3.51 13.81,-5.27 5,-1.93 10.02,-3.83 14.98,-5.83 4.61,-1.87 9.16,-3.83 13.74,-5.76 4.85,-2.05 9.72,-4.07 14.54,-6.2 4.59,-2.03 9.12,-4.17 13.68,-6.27 4.71,-2.17 9.43,-4.3 14.1,-6.55 4.54,-2.19 9.02,-4.49 13.52,-6.75 4.58,-2.3 9.19,-4.55 13.71,-6.92 4.53,-2.37 8.98,-4.85 13.46,-7.29 4.4,-2.39 8.82,-4.74 13.17,-7.2 4.5,-2.55 8.91,-5.21 13.34,-7.83 4.25,-2.5 8.53,-4.95 12.72,-7.51 4.47,-2.73 8.82,-5.58 13.23,-8.38 4.05,-2.578 8.15,-5.109 12.14,-7.75 4.56,-3 8.99,-6.121 13.47,-9.199 3.75,-2.582 7.55,-5.102 11.25,-7.731 4.69,-3.332 9.25,-6.789 13.85,-10.21 1.98,-1.469 3.98,-2.918 5.96,-4.411 6.21,-4.687 12.31,-9.519 18.38,-14.379 0.31,-0.242 0.62,-0.492 0.92,-0.73 2.17,-1.738 4.38,-3.43 6.53,-5.191 8.2,-6.727 16.29,-13.579 24.17,-20.598 1.69,2.418 3.13,4.961 4.36,7.578 0.13,0.27 0.2,0.551 0.31,0.82 0.02,0.032 0.03,0.071 0.04,0.102 0.37,0.82 0.64,1.687 0.97,2.527 0.61,1.543 1.28,3.063 1.75,4.66 0.19,0.641 0.27,1.313 0.45,1.961 0,0.032 0.01,0.051 0.01,0.071 0.25,0.992 0.47,1.992 0.67,2.992 0.24,1.16 0.58,2.297 0.76,3.476 0.17,1.082 0.21,2.192 0.32,3.282 0.01,0.058 0.01,0.121 0.02,0.179 0.1,0.961 0.22,1.911 0.29,2.879 0.06,0.742 0.18,1.461 0.22,2.211 -0.01,0.012 -0.02,0.012 -0.03,0.02 0.09,1.851 0.03,3.73 -0.01,5.613 z"
         id="path78" /></clipPath></defs><sodipodi:namedview
     pagecolor="#ffffff"
     bordercolor="#666666"
     borderopacity="1"
     objecttolerance="10"
     gridtolerance="10"
     guidetolerance="10"
     inkscape:pageopacity="0"
     inkscape:pageshadow="2"
     inkscape:window-width="640"
     inkscape:window-height="480"
     id="namedview4" /><g
     id="g10"
     inkscape:groupmode="layer"
     inkscape:label="ink_ext_XXXXXX"
     transform="matrix(1.3333333,0,0,-1.3333333,0,283.17333)"><g
       id="g12"
       transform="scale(0.1)"><path
         d="m 354.141,384.711 c -18.985,-18.981 -40.996,-33.879 -66.043,-44.699 -25.055,-10.813 -52.008,-16.223 -80.852,-16.223 -28.465,0 -55.328,5.41 -80.566,16.223 -25.242,10.82 -47.2542,25.629 -66.0433,44.418 -18.789,18.781 -33.5898,40.789 -44.4101,66.039 C 5.41016,475.711 0,502.57 0,531.039 c 0,28.473 5.41016,55.313 16.2266,80.563 10.8203,25.238 25.6211,47.257 44.4101,66.046 18.7891,18.793 40.8013,33.59 66.0433,44.411 25.238,10.812 52.101,16.23 80.566,16.23 28.844,0 55.797,-5.418 80.852,-16.23 25.047,-10.821 47.058,-25.719 66.043,-44.7 l -48.395,-48.39 c -13.289,13.281 -28.285,23.429 -44.98,30.461 -16.707,7.019 -34.543,10.531 -53.52,10.531 -18.601,0 -36.254,-3.512 -52.953,-10.531 C 137.59,652.398 122.598,642.25 109.316,628.969 96.0273,615.672 85.875,600.691 78.8516,583.988 71.8281,567.281 68.3203,549.629 68.3203,531.039 c 0,-18.598 3.5078,-36.348 10.5313,-53.238 7.0234,-16.891 17.1757,-31.981 30.4644,-45.27 13.282,-13.281 28.274,-23.34 44.977,-30.172 16.699,-6.828 34.352,-10.25 52.953,-10.25 18.977,0 36.813,3.422 53.52,10.25 16.695,6.832 31.691,16.891 44.98,30.172 l 48.395,-47.82"
         style="fill:#1d3c65;fill-opacity:1;fill-rule:nonzero;stroke:none"
         id="path14" /><path
         d="M 448.082,661.422 V 564.629 H 596.68 l 17.086,-68.32 H 448.082 V 331.191 H 379.758 V 729.75 H 647.926 V 661.422 H 448.082"
         style="fill:#1d3c65;fill-opacity:1;fill-rule:nonzero;stroke:none"
         id="path16" /><path
         d="m 1289.87,548.121 c 0.57,-5.691 0.86,-11.391 0.86,-17.082 0,-28.469 -5.41,-55.328 -16.23,-80.57 -10.82,-25.25 -25.62,-47.258 -44.41,-66.039 -18.79,-18.789 -40.81,-33.598 -66.05,-44.418 -25.24,-10.813 -52.1,-16.223 -80.56,-16.223 -28.47,0 -55.33,5.41 -80.56,16.223 -25.252,10.82 -47.26,25.629 -66.049,44.418 -18.789,18.781 -33.594,40.789 -44.41,66.039 -10.82,25.242 -16.231,52.101 -16.231,80.57 0,28.473 5.411,55.313 16.231,80.563 10.816,25.238 25.621,47.257 44.41,66.046 18.789,18.793 40.797,33.59 66.049,44.411 25.23,10.812 52.09,16.23 80.56,16.23 28.84,0 55.8,-5.418 80.85,-16.23 25.05,-10.821 46.87,-25.719 65.47,-44.7 l -47.82,-48.39 c -13.29,13.281 -28.38,23.429 -45.27,30.461 -16.89,7.019 -34.64,10.531 -53.23,10.531 -18.6,0 -36.25,-3.512 -52.95,-10.531 -16.71,-7.032 -31.698,-17.18 -44.983,-30.461 -13.289,-13.297 -23.438,-28.278 -30.457,-44.981 -7.027,-16.707 -10.535,-34.359 -10.535,-52.949 0,-18.598 3.508,-36.348 10.535,-53.238 7.019,-16.891 17.168,-31.981 30.457,-45.27 13.285,-13.281 28.273,-23.34 44.983,-30.172 16.7,-6.828 34.35,-10.25 52.95,-10.25 18.59,0 36.34,3.422 53.23,10.25 16.89,6.832 31.98,16.891 45.27,30.172 17.83,18.598 29.98,40.051 36.44,64.34 h -184.47 l 17.08,68.328 h 236.85 c 0.75,-5.687 1.42,-11.39 1.99,-17.078"
         style="fill:#1d3c65;fill-opacity:1;fill-rule:nonzero;stroke:none"
         id="path18" /><path
         d="m 1616.97,586.84 c 0,-14.442 -1.99,-28.192 -5.97,-41.281 -4,-13.098 -9.5,-25.149 -16.52,-36.161 -7.03,-11.007 -15.56,-20.976 -25.62,-29.886 -10.06,-8.922 -21.16,-16.231 -33.31,-21.922 l 81.42,-126.399 h -81.42 l -72.31,112.168 h -46.69 l 27.9,68.313 h 29.61 c 20.49,0 38.15,7.41 52.95,22.219 6.84,7.199 12.14,15.371 15.94,24.48 3.79,9.109 5.69,18.59 5.69,28.469 0,9.859 -1.9,19.351 -5.69,28.461 -3.8,9.109 -9.1,17.078 -15.94,23.918 -14.8,14.801 -32.46,22.203 -52.95,22.203 h -80.85 V 623.84 511.672 443.359 331.191 h -68.32 V 443.359 623.84 729.75 h 149.17 c 19.73,0 38.24,-3.809 55.51,-11.391 17.28,-7.597 32.36,-17.847 45.26,-30.75 12.9,-12.91 23.16,-27.988 30.76,-45.257 7.58,-17.282 11.38,-35.782 11.38,-55.512"
         style="fill:#1d3c65;fill-opacity:1;fill-rule:nonzero;stroke:none"
         id="path20" /><path
         d="m 1855.53,669.961 c -18.61,0 -36.26,-3.512 -52.95,-10.531 -16.71,-7.032 -31.7,-17.18 -44.98,-30.461 -13.29,-13.297 -23.45,-28.278 -30.46,-44.981 -7.03,-16.707 -10.54,-34.359 -10.54,-52.949 0,-18.598 3.51,-36.348 10.54,-53.238 7.01,-16.891 17.17,-31.981 30.46,-45.27 13.28,-13.281 28.27,-23.34 44.98,-30.172 16.69,-6.828 34.34,-10.25 52.95,-10.25 18.59,0 36.34,3.422 53.23,10.25 16.88,6.832 31.97,16.891 45.26,30.172 13.28,13.289 23.35,28.379 30.18,45.27 6.84,16.89 10.25,34.64 10.25,53.238 0,18.59 -3.41,36.242 -10.25,52.949 -6.83,16.703 -16.9,31.684 -30.18,44.981 -13.29,13.281 -28.38,23.429 -45.26,30.461 -16.89,7.019 -34.64,10.531 -53.23,10.531 z m 0,68.328 c 28.46,0 55.31,-5.418 80.55,-16.23 25.25,-10.821 47.26,-25.618 66.06,-44.411 18.79,-18.789 33.58,-40.808 44.41,-66.046 10.81,-25.25 16.22,-52.09 16.22,-80.563 0,-28.469 -5.41,-55.328 -16.22,-80.57 -10.83,-25.25 -25.62,-47.258 -44.41,-66.039 -18.8,-18.789 -40.81,-33.598 -66.06,-44.418 -25.24,-10.813 -52.09,-16.223 -80.55,-16.223 -28.47,0 -55.33,5.41 -80.57,16.223 -25.25,10.82 -47.25,25.629 -66.04,44.418 -18.79,18.781 -33.6,40.789 -44.42,66.039 -10.82,25.242 -16.22,52.101 -16.22,80.57 0,28.473 5.4,55.313 16.22,80.563 10.82,25.238 25.63,47.257 44.42,66.046 18.79,18.793 40.79,33.59 66.04,44.411 25.24,10.812 52.1,16.23 80.57,16.23"
         style="fill:#1d3c65;fill-opacity:1;fill-rule:nonzero;stroke:none"
         id="path22" /><path
         d="M 2428.88,729.75 V 490.609 c 0,-23.148 -4.38,-44.89 -13.11,-65.187 -8.73,-20.313 -20.68,-38.063 -35.87,-53.231 -15.18,-15.191 -32.93,-27.152 -53.23,-35.871 -20.31,-8.73 -42.05,-13.101 -65.19,-13.101 -23.16,0 -44.89,4.371 -65.2,13.101 -20.3,8.719 -38.06,20.68 -53.23,35.871 -15.19,15.168 -27.14,32.918 -35.87,53.231 -8.73,20.297 -13.09,42.039 -13.09,65.187 V 729.75 h 68.32 V 490.609 c 0,-13.289 2.46,-25.898 7.39,-37.859 4.94,-11.961 12.15,-22.691 21.65,-32.172 9.48,-9.488 20.21,-16.707 32.17,-21.629 11.96,-4.937 24.56,-7.41 37.86,-7.41 27.33,0 50.68,9.691 70.03,29.039 9.49,9.481 16.69,20.211 21.63,32.172 4.94,11.961 7.41,24.57 7.41,37.859 V 729.75 h 68.33"
         style="fill:#1d3c65;fill-opacity:1;fill-rule:nonzero;stroke:none"
         id="path24" /><path
         d="m 2670.27,718.359 c 17.45,-7.597 32.65,-17.847 45.55,-30.75 12.9,-12.91 23.15,-27.988 30.75,-45.257 7.59,-17.282 11.39,-35.782 11.39,-55.512 0,-19.75 -3.8,-38.34 -11.39,-55.801 -7.6,-17.469 -17.85,-32.648 -30.75,-45.559 -12.9,-12.898 -28.1,-23.148 -45.55,-30.742 -17.46,-7.597 -36.06,-11.379 -55.79,-11.379 h -56.93 l 27.89,68.313 h 29.04 c 20.49,0 38.15,7.41 52.95,22.219 14.81,14.8 22.2,32.449 22.2,52.949 0,20.871 -7.39,38.332 -22.2,52.379 -14.8,14.801 -32.46,22.203 -52.95,22.203 H 2534.2 V 331.191 h -68.33 V 729.75 h 148.61 c 19.73,0 38.33,-3.809 55.79,-11.391"
         style="fill:#1d3c65;fill-opacity:1;fill-rule:nonzero;stroke:none"
         id="path26" /><path
         d="M 658.09,394.559 701,320.23 l 42.918,74.329 z"
         style="fill:#00abbf;fill-opacity:1;fill-rule:nonzero;stroke:none"
         id="path28" /><path
         d="M 786.832,320.23 743.918,394.559 701,320.23 Z"
         style="fill:#ed1c24;fill-opacity:1;fill-rule:nonzero;stroke:none"
         id="path30" /><path
         d="m 743.918,394.559 42.914,-74.329 42.91,74.329 z"
         style="fill:#bf1d23;fill-opacity:1;fill-rule:nonzero;stroke:none"
         id="path32" /><path
         d="M 743.918,394.559 701,468.891 658.09,394.559 Z"
         style="fill:#46c1c7;fill-opacity:1;fill-rule:nonzero;stroke:none"
         id="path34" /><path
         d="m 701,468.891 42.918,-74.332 42.914,74.332 z"
         style="fill:#4f4c4c;fill-opacity:1;fill-rule:nonzero;stroke:none"
         id="path36" /><path
         d="m 829.742,394.559 -42.91,74.332 -42.914,-74.332 z"
         style="fill:#656263;fill-opacity:1;fill-rule:nonzero;stroke:none"
         id="path38" /><path
         d="m 2480.18,1395.74 c 0,0 -236.33,814.33 -1070.9,385 l 2.13,-4.81 c -103.87,144.49 -256,282.27 -439.246,329.24 -54.824,14.05 -116.781,21.26 -179.582,17.75 -212.094,-11.88 -390.398,-110.18 -512.07,-242.41 -13.547,-15.2 -25.957,-30.3 -37.16,-45 0,0 -1.696,-2.64 -3.161,-4.86 -0.976,-1.45 -4.191,-7.6 -4.191,-7.6 l 9.684,10.52 c 2.121,2.25 214.484,226.18 583.324,150.7 237.782,-48.62 343.932,-164.19 446.572,-275.94 31.69,-34.5 61.6,-67.07 95.29,-97.77 137.94,-125.84 215.51,-154.66 216.28,-154.96 l 3.04,-1.06 -1.1,3.04 c -1.06,2.91 -45.5,121.01 -137.49,261.94 -0.55,0.81 -8.17,11.07 -13.83,18.8 67.64,39.67 592.01,272.54 824.53,-280.49 39.19,-9.17 91.09,-18.53 123.06,-28.53 65.49,-20.47 94.82,-33.56 94.82,-33.56 M 225.629,1187.88 c -91.57,101.32 -116.668,228.36 -116.938,229.65 l -1.687,7.71 -0.664,-7.95 v -13.23 c 3.109,-47.12 21.59,-211.4 129.82,-333.25 82.309,-92.689 207.356,-143.771 352.203,-143.771 296.16,0 405.602,265.091 426.137,323.571 15.11,-15.47 29.7,-29.07 43.28,-40.25 23.74,-19.56 50.49,-38.62 79.35,-56.73 116.41,-57.13 223.51,-45.34 240.23,-31.59 -121.84,47.18 -158.21,70.75 -236.8,158.2 -60.64,67.5 -104.84,147.42 -141.369,220.24 -25.625,51.08 -47.781,95.19 -73.445,125.98 -75.285,90.35 -201.508,127.39 -337.676,99.11 -155.515,-32.27 -226.179,-153.95 -227.218,-260.26 -1.036,-106.84 65.972,-191.27 170.714,-215.13 159.469,-36.35 223.063,74.84 223.711,75.95 l 1.766,3.23 -3.527,-1.01 c -0.719,-0.23 -74.317,-21.13 -115.758,11.96 -20.832,16.61 -30.262,44.16 -27.992,81.85 1.711,28.52 18.453,52.28 47.218,66.96 47.079,23.96 115.196,18.2 165.688,-14.04 27.601,-17.66 65.707,-61.74 113.344,-131.03 l 12.636,-17.33 c -30.953,-65.36 -150.191,-283.6 -392.289,-282.85 -120.457,-1.5 -250.258,55.02 -330.734,144.01"
         style="fill:#1d3c65;fill-opacity:1;fill-rule:nonzero;stroke:none"
         id="path40" /><path
         d="m 2.18359,145.672 v 23.039 H 128.891 V 145.672 H 77.1211 V 1.87109 H 54.0742 V 145.672 H 2.18359"
         style="fill:#1d3c65;fill-opacity:1;fill-rule:nonzero;stroke:none"
         id="path42" /><path
         d="m 191.953,168.602 c 0.625,-0.864 1.192,-1.793 1.738,-2.793 0.403,-0.86 0.778,-1.887 1.176,-3.09 0.375,-1.199 0.567,-2.5 0.567,-3.887 v -49.57 c 1.402,2.707 3.336,5.097 5.816,7.16 2.5,2.039 5.281,3.777 8.391,5.168 3.101,1.398 6.453,2.441 10.05,3.14 3.622,0.7 7.278,1.051 11.008,1.051 6.817,0 13.067,-1.281 18.727,-3.84 5.664,-2.562 10.492,-6.203 14.484,-10.941 3.996,-4.73 7.106,-10.449 9.317,-17.1602 2.199,-6.7109 3.316,-14.2187 3.316,-22.5078 V 1.87109 H 253.496 V 71.332 c 0,10.1563 -1.855,18.1289 -5.586,23.9063 -3.711,5.7737 -9.469,8.6717 -17.211,8.6717 -4.66,0 -9.054,-0.57 -13.203,-1.691 -4.168,-1.117 -7.84,-2.6487 -11.055,-4.5979 -3.222,-1.9414 -5.796,-4.1797 -7.75,-6.75 -1.929,-2.5508 -3.007,-5.2422 -3.257,-8.0313 V 1.87109 H 172.406 V 168.602 h 19.547"
         style="fill:#1d3c65;fill-opacity:1;fill-rule:nonzero;stroke:none"
         id="path44" /><path
         d="m 354.242,78.3086 h 68.418 c -1.551,3.6406 -3.558,6.9922 -6.039,10.0625 -2.5,3.0703 -5.34,5.6992 -8.558,7.918 -3.223,2.2109 -6.762,3.9299 -10.645,5.1719 -3.883,1.238 -7.914,1.871 -12.102,1.871 -4.582,0 -8.937,-0.73 -13.086,-2.16 -4.144,-1.4337 -7.914,-3.4415 -11.285,-5.9923 -3.371,-2.5586 -6.289,-5.5977 -8.726,-9.1406 -2.449,-3.5196 -4.285,-7.3789 -5.535,-11.5703 0.625,0.8515 1.554,1.7109 2.804,2.5625 1.231,0.8476 2.821,1.2773 4.754,1.2773 z m 92.281,-5 c 0,-2.7188 -0.531,-5.1367 -1.574,-7.2695 -1.062,-2.1407 -2.347,-3.9571 -3.898,-5.4805 -1.555,-1.5 -3.278,-2.6602 -5.192,-3.4766 -1.894,-0.8203 -3.691,-1.2226 -5.394,-1.2226 h -84.934 c 0.68,-4.7383 2.235,-9.1211 4.641,-13.1485 2.402,-4.039 5.394,-7.5507 8.953,-10.5312 3.578,-2.9883 7.613,-5.3281 12.102,-7.0391 4.507,-1.7109 9.203,-2.5586 14.089,-2.5586 3.563,0 6.989,0.4375 10.305,1.3399 3.297,0.8867 6.414,2.1484 9.356,3.7773 1.55,0.8516 3.066,1.461 4.539,1.8711 1.48,0.3711 3.105,0.5703 4.89,0.5703 2.481,0 4.735,-0.4609 6.742,-1.3906 2.028,-0.9414 3.915,-2.2891 5.7,-4.0781 L 431.281,20.25 C 425.465,14.0391 418.629,9.14063 410.785,5.53125 c -7.82,-3.60937 -16.32,-5.402344 -25.469,-5.402344 -8.617,0 -16.742,1.640624 -24.371,4.941404 -7.648,3.28907 -14.312,7.78909 -20.015,13.48829 -5.7,5.7031 -10.207,12.3828 -13.504,20.0234 -3.293,7.6368 -4.942,15.7578 -4.942,24.3672 0,8.6211 1.649,16.7422 4.942,24.3828 3.297,7.6289 7.804,14.309 13.504,20.008 5.703,5.699 12.367,10.191 20.015,13.492 7.629,3.309 15.754,4.949 24.371,4.949 7.219,0 14.11,-1.199 20.719,-3.609 6.586,-2.402 12.555,-5.703 17.914,-9.891 5.336,-4.179 9.942,-9.152 13.785,-14.8904 3.844,-5.7422 6.614,-11.9804 8.317,-18.7304 0.222,-0.8516 0.336,-1.75 0.336,-2.6797 0,-0.9297 0.039,-1.8203 0.136,-2.6719"
         style="fill:#1d3c65;fill-opacity:1;fill-rule:nonzero;stroke:none"
         id="path46" /><path
         d="M 677.117,73.0703 C 676.949,72.9219 666.605,49.1797 646.039,1.87109 H 623.586 L 570.313,124.031 h 13.257 c 3.559,0 6.891,-0.961 9.996,-2.91 3.11,-1.941 5.286,-4.531 6.516,-7.789 l 32.59,-74.7031 c 0.703,-1.5469 1.176,-3.2695 1.441,-5.168 0.282,-1.9101 0.492,-3.9414 0.645,-6.1093 0.148,4.5 0.887,8.2695 2.215,11.2773 l 32.57,74.8121 c 1.398,3.258 3.617,5.868 6.645,7.797 3.011,1.942 6.308,2.922 9.886,2.922 h 13.258 l -13.371,-30.6092 24.07,-54.9219 c 0.543,-1.4687 1.004,-3.0391 1.34,-4.707 0.363,-1.6719 0.606,-3.5117 0.758,-5.5235 0.23,4.0313 0.969,7.4414 2.219,10.2305 l 32.57,74.8121 c 1.402,3.258 3.617,5.868 6.629,7.797 3.031,1.942 6.324,2.922 9.906,2.922 h 13.25 L 723.418,1.87109 H 700.957 L 679.449,51.3086 c -2.406,5.5117 -3.621,10.4414 -3.621,14.7812 0,2.4805 0.438,4.8086 1.289,6.9805"
         style="fill:#1d3c65;fill-opacity:1;fill-rule:nonzero;stroke:none"
         id="path48" /><path
         d="m 994.859,124.031 c 0.704,-1 1.25,-1.929 1.688,-2.793 0.437,-0.847 0.832,-1.879 1.23,-3.078 0.379,-1.199 0.567,-2.5 0.567,-3.898 v -5 c 1.402,2.707 3.336,5.097 5.816,7.16 2.5,2.039 5.28,3.777 8.39,5.168 3.1,1.398 6.45,2.441 10.05,3.14 3.62,0.7 7.27,1.051 11,1.051 6.83,0 13.07,-1.222 18.73,-3.66 5.67,-2.449 10.5,-6 14.49,-10.66 4,-4.641 7.1,-10.34 9.32,-17.0899 2.2,-6.75 3.31,-14.4297 3.31,-23.0391 V 1.87109 h -23.04 V 71.332 c 0,10.1563 -1.86,18.1289 -5.59,23.9063 -3.71,5.7737 -9.47,8.6717 -17.22,8.6717 -4.65,0 -9.04,-0.531 -13.19,-1.57 -4.17,-1.051 -7.84,-2.4611 -11.06,-4.2502 -3.22,-1.7812 -5.8,-3.9296 -7.75,-6.4101 -1.932,-2.4805 -3.01,-5.1094 -3.256,-7.8984 V 1.87109 H 975.316 V 124.031 h 19.543"
         style="fill:#1d3c65;fill-opacity:1;fill-rule:nonzero;stroke:none"
         id="path50" /><path
         d="m 1185.9,103.211 c -5.59,0 -10.7,-1.07 -15.36,-3.199 -4.66,-2.1331 -8.67,-5.0315 -12.04,-8.6722 -3.38,-3.6484 -5.99,-7.9101 -7.87,-12.8007 -1.85,-4.8789 -2.78,-10.1172 -2.78,-15.6993 0,-5.5898 0.93,-10.8281 2.78,-15.7109 1.88,-4.8906 4.49,-9.1601 7.87,-12.7969 3.37,-3.6523 7.38,-6.5429 12.04,-8.6718 4.66,-2.1407 9.77,-3.1993 15.36,-3.1993 5.96,0 11.78,1.1875 17.4,3.5508 5.61,2.3672 10.44,5.6094 14.47,9.7188 v 54.2187 c -4.03,4.1016 -8.86,7.3399 -14.47,9.711 -5.62,2.3708 -11.44,3.5508 -17.4,3.5508 z M 1221.27,1.87109 c -0.7,0.84766 -1.28,1.77735 -1.74,2.78907 -0.4,0.85156 -0.78,1.8789 -1.18,3.08984 -0.38,1.19141 -0.58,2.5 -0.58,3.8906 v 0.8203 c -2.41,-2.4101 -4.91,-4.41012 -7.5,-5.99996 -2.59,-1.58985 -5.25,-2.8711 -7.97,-3.83203 -2.71,-0.96875 -5.46,-1.648441 -8.26,-2.039066 C 1191.26,0.199219 1188.53,0 1185.9,0 c -8.62,0 -16.63,1.66016 -24.03,4.96094 -7.41,3.28906 -13.81,7.78906 -19.19,13.48826 -5.39,5.6992 -9.62,12.3828 -12.68,20.0117 -3.07,7.6289 -4.61,15.7696 -4.61,24.3789 0,8.6016 1.54,16.7305 4.61,24.3711 3.06,7.6407 7.29,14.3091 12.68,20.0081 5.38,5.703 11.78,10.203 19.19,13.5 7.4,3.293 15.41,4.941 24.03,4.941 2.63,0 5.36,-0.191 8.14,-0.578 2.8,-0.391 5.55,-1.051 8.26,-1.98 2.72,-0.93 5.38,-2.192 7.97,-3.774 2.59,-1.598 5.09,-3.59 7.5,-5.996 v 55.27 h 23.05 V 1.87109 h -19.55"
         style="fill:#1d3c65;fill-opacity:1;fill-rule:nonzero;stroke:none"
         id="path52" /><path
         d="m 1322.15,78.3086 h 68.42 c -1.56,3.6406 -3.58,6.9922 -6.06,10.0625 -2.48,3.0703 -5.34,5.6992 -8.54,7.918 -3.22,2.2109 -6.78,3.9299 -10.66,5.1719 -3.89,1.238 -7.9,1.871 -12.11,1.871 -4.56,0 -8.93,-0.73 -13.08,-2.16 -4.15,-1.4337 -7.92,-3.4415 -11.29,-5.9923 -3.37,-2.5586 -6.29,-5.5977 -8.73,-9.1406 -2.44,-3.5196 -4.27,-7.3789 -5.51,-11.5703 0.61,0.8515 1.54,1.7109 2.79,2.5625 1.23,0.8476 2.82,1.2773 4.77,1.2773 z m 92.25,-5 c 0,-2.7188 -0.52,-5.1367 -1.56,-7.2695 -1.04,-2.1407 -2.35,-3.9571 -3.9,-5.4805 -1.56,-1.5 -3.28,-2.6602 -5.17,-3.4766 -1.89,-0.8203 -3.71,-1.2226 -5.42,-1.2226 h -84.93 c 0.7,-4.7383 2.25,-9.1211 4.66,-13.1485 2.4,-4.039 5.39,-7.5507 8.96,-10.5312 3.56,-2.9883 7.59,-5.3281 12.1,-7.0391 4.48,-1.7109 9.18,-2.5586 14.06,-2.5586 3.58,0 7.01,0.4375 10.31,1.3399 3.29,0.8867 6.42,2.1484 9.37,3.7773 1.55,0.8516 3.05,1.461 4.53,1.8711 1.47,0.3711 3.1,0.5703 4.88,0.5703 2.49,0 4.73,-0.4609 6.76,-1.3906 2.01,-0.9414 3.92,-2.2891 5.71,-4.0781 l 4.4,-4.4219 c -5.81,-6.2109 -12.63,-11.10937 -20.47,-14.71875 -7.84,-3.60937 -16.32,-5.402344 -25.49,-5.402344 -8.59,0 -16.72,1.640624 -24.37,4.941404 -7.63,3.28907 -14.31,7.78909 -20.01,13.48829 -5.7,5.7031 -10.19,12.3828 -13.49,20.0234 -3.29,7.6368 -4.94,15.7578 -4.94,24.3672 0,8.6211 1.65,16.7422 4.94,24.3828 3.3,7.6289 7.79,14.309 13.49,20.008 5.7,5.699 12.38,10.191 20.01,13.492 7.65,3.309 15.78,4.949 24.37,4.949 7.22,0 14.13,-1.199 20.72,-3.609 6.59,-2.402 12.57,-5.703 17.92,-9.891 5.36,-4.179 9.94,-9.152 13.79,-14.8904 3.83,-5.7422 6.6,-11.9804 8.33,-18.7304 0.22,-0.8516 0.34,-1.75 0.34,-2.6797 0,-0.9297 0.04,-1.8203 0.1,-2.6719"
         style="fill:#1d3c65;fill-opacity:1;fill-rule:nonzero;stroke:none"
         id="path54" /><path
         d="m 1482.7,124.031 c 0.7,-1 1.26,-1.929 1.7,-2.793 0.41,-0.847 0.83,-1.879 1.22,-3.078 0.39,-1.199 0.58,-2.5 0.58,-3.898 v -8.492 c 1.4,2.789 3.33,5.378 5.81,7.789 2.48,2.402 5.27,4.531 8.37,6.339 3.11,1.832 6.46,3.262 10.08,4.313 3.59,1.039 7.26,1.57 10.99,1.57 6.27,0 12.22,-1.133 17.79,-3.383 l -1.74,-9.886 c -0.62,-3.25 -2.01,-5.801 -4.19,-7.621 -2.18,-1.821 -4.84,-2.731 -8.03,-2.731 -0.38,0 -0.62,0.02 -0.7,0.059 -0.07,0.031 -0.2,0.062 -0.39,0.062 -0.2,0 -0.5,0.008 -0.87,0.059 -0.4,0.039 -1.1,0.058 -2.11,0.058 -4.66,0 -9.05,-0.687 -13.19,-2.039 -4.15,-1.3707 -7.81,-3.1207 -10.95,-5.2887 -3.14,-2.1797 -5.68,-4.6484 -7.62,-7.3984 -1.94,-2.7422 -3.02,-5.5235 -3.25,-8.3125 V 1.87109 h -23.05 V 124.031 h 19.55"
         style="fill:#1d3c65;fill-opacity:1;fill-rule:nonzero;stroke:none"
         id="path56" /><path
         d="m 1686.07,62.9492 c 0,-5.5898 1.09,-10.8203 3.21,-15.7109 2.14,-4.8867 5.04,-9.1367 8.67,-12.7891 3.66,-3.6484 7.92,-6.539 12.8,-8.6679 4.88,-2.1329 10.12,-3.1993 15.71,-3.1993 5.58,0 10.83,1.0664 15.71,3.1993 4.89,2.1289 9.15,5.0195 12.8,8.6679 3.63,3.6524 6.53,7.9024 8.65,12.7891 2.14,4.8906 3.21,10.1211 3.21,15.7109 0,5.5899 -1.07,10.8203 -3.21,15.711 -2.12,4.8789 -5.02,9.1484 -8.65,12.8007 -3.65,3.6407 -7.91,6.5274 -12.8,8.6601 -4.88,2.129 -10.13,3.211 -15.71,3.211 -5.59,0 -10.83,-1.082 -15.71,-3.211 -4.88,-2.1327 -9.14,-5.0194 -12.8,-8.6601 -3.63,-3.6523 -6.53,-7.9218 -8.67,-12.8007 -2.12,-4.8907 -3.21,-10.1211 -3.21,-15.711 z m -22.43,0 c 0,8.6211 1.64,16.7422 4.94,24.3828 3.3,7.6289 7.79,14.309 13.48,20.008 5.7,5.699 12.39,10.191 20.02,13.492 7.65,3.309 15.77,4.949 24.38,4.949 8.61,0 16.73,-1.64 24.38,-4.949 7.64,-3.301 14.3,-7.793 20,-13.492 5.7,-5.699 10.21,-12.3791 13.51,-20.008 3.29,-7.6406 4.94,-15.7617 4.94,-24.3828 0,-8.6094 -1.65,-16.7304 -4.94,-24.3672 -3.3,-7.6406 -7.81,-14.3203 -13.51,-20.0234 -5.7,-5.6992 -12.36,-10.19922 -20,-13.48829 -7.65,-3.30078 -15.77,-4.941404 -24.38,-4.941404 -8.61,0 -16.73,1.640624 -24.38,4.941404 -7.63,3.28907 -14.32,7.78909 -20.02,13.48829 -5.69,5.7031 -10.18,12.3828 -13.48,20.0234 -3.3,7.6368 -4.94,15.7578 -4.94,24.3672"
         style="fill:#1d3c65;fill-opacity:1;fill-rule:nonzero;stroke:none"
         id="path58" /><path
         d="M 1842.8,1.87109 V 102.051 h -20.36 v 12.558 c 0,6.442 5.93,9.661 17.8,9.661 h 2.56 v 12.449 c 0,4.73 0.74,9.09 2.22,13.082 1.47,4 3.55,7.437 6.29,10.308 2.7,2.86 5.99,5.11 9.88,6.743 3.88,1.628 8.25,2.437 13.15,2.437 2.17,0 4.62,-0.301 7.32,-0.93 2.71,-0.621 5.42,-1.437 8.09,-2.437 2.66,-1 5.2,-2.172 7.55,-3.492 2.37,-1.321 4.26,-2.668 5.65,-4.078 l -2.68,-4.18 c -1.55,-2.481 -3.57,-4.524 -6.09,-6.113 -2.54,-1.59 -5.3,-2.387 -8.33,-2.387 -2.49,0 -5.38,0.469 -8.71,1.398 -0.26,0 -0.52,0.032 -0.82,0.121 -0.63,0.149 -1.29,0.231 -1.98,0.231 -1.41,0 -2.62,-0.34 -3.67,-0.992 -1.05,-0.66 -1.93,-1.508 -2.62,-2.551 -0.71,-1.047 -1.23,-2.199 -1.63,-3.438 -0.38,-1.242 -0.57,-2.48 -0.57,-3.722 v -12.688 h 31.52 v -21.98 h -31.52 V 1.87109 h -23.05"
         style="fill:#1d3c65;fill-opacity:1;fill-rule:nonzero;stroke:none"
         id="path60" /><path
         d="m 2123.07,73.0703 c -0.15,-0.1484 -10.51,-23.8906 -31.06,-71.19921 h -22.46 L 2016.26,124.031 h 13.26 c 3.58,0 6.92,-0.961 10.02,-2.91 3.11,-1.941 5.26,-4.531 6.51,-7.789 l 32.57,-74.7031 c 0.71,-1.5469 1.19,-3.2695 1.46,-5.168 0.26,-1.9101 0.5,-3.9414 0.64,-6.1093 0.16,4.5 0.89,8.2695 2.22,11.2773 l 32.57,74.8121 c 1.4,3.258 3.6,5.868 6.63,7.797 3.03,1.942 6.33,2.922 9.88,2.922 h 13.28 L 2131.91,93.5508 2156,38.6289 c 0.55,-1.4687 0.98,-3.0391 1.34,-4.707 0.35,-1.6719 0.59,-3.5117 0.77,-5.5235 0.22,4.0313 0.96,7.4414 2.19,10.2305 l 32.59,74.8121 c 1.38,3.258 3.59,5.868 6.63,7.797 3.03,1.942 6.32,2.922 9.88,2.922 h 13.26 L 2169.38,1.87109 h -22.45 L 2125.4,51.3086 c -2.41,5.5117 -3.6,10.4414 -3.6,14.7812 0,2.4805 0.42,4.8086 1.27,6.9805"
         style="fill:#1d3c65;fill-opacity:1;fill-rule:nonzero;stroke:none"
         id="path62" /><path
         d="m 2295.04,22.2305 c 2.7,0 5.62,0.2695 8.73,0.8086 3.09,0.5507 6.23,1.3125 9.4,2.2695 3.19,0.9727 6.35,2.1328 9.5,3.4922 3.14,1.3594 6.15,2.8906 9.01,4.5976 v 20.4805 c -0.22,0.082 -1.03,0.1328 -2.38,0.1719 -1.35,0.039 -3.02,0.0976 -5,0.1797 -1.98,0.0781 -4.19,0.1289 -6.63,0.1679 -2.45,0.043 -4.95,0.0625 -7.5,0.0625 -4.82,0 -9.3,-0.3125 -13.45,-0.9296 -4.14,-0.6211 -7.76,-1.6329 -10.81,-3.0313 -3.07,-1.3906 -5.47,-3.1992 -7.22,-5.4102 -1.74,-2.1992 -2.63,-4.8984 -2.63,-8.0781 0,-2.7226 0.49,-5 1.46,-6.8711 0.97,-1.8593 2.3,-3.3711 4.01,-4.5312 1.71,-1.168 3.73,-2.0196 6.07,-2.5703 2.32,-0.5391 4.8,-0.8086 7.44,-0.8086 z m -32.58,83.8905 c 0.76,1.16 1.71,2.328 2.78,3.488 0.93,1.012 2.11,2.11 3.49,3.313 1.41,1.207 3.03,2.43 4.88,3.668 4.66,2.941 9.66,5.219 15.02,6.808 5.36,1.59 11.33,2.383 17.92,2.383 6.66,0 12.49,-0.812 17.45,-2.441 4.97,-1.629 9.21,-3.899 12.76,-6.809 3.51,-2.91 6.37,-6.34 8.59,-10.301 2.22,-3.949 3.96,-8.2808 5.25,-12.9683 1.27,-4.7031 2.13,-9.6211 2.61,-14.7734 0.45,-5.1563 0.7,-10.3789 0.7,-15.6485 V 1.87109 h -18.86 c -1.01,1.23829 -1.84,2.73047 -2.5,4.48047 -0.67,1.73828 -0.99,3.50782 -0.99,5.28904 v 3.1485 c -2.18,-2.168 -4.78,-4.1602 -7.86,-5.93754 -3.05,-1.78125 -6.23,-3.32031 -9.52,-4.60156 -3.31,-1.28125 -6.63,-2.28906 -9.96,-3.01953 -3.33,-0.742189 -6.36,-1.101564 -9.07,-1.101564 -6.14,0 -11.74,0.871094 -16.82,2.609374 -5.07,1.74219 -9.4,4.23047 -13.03,7.45312 -3.59,3.207 -6.39,7.0977 -8.37,11.6289 -1.99,4.5391 -2.97,9.6016 -2.97,15.1914 0,6.0469 1.12,11.4883 3.37,16.3399 2.26,4.8476 5.68,9 10.31,12.4492 4.62,3.4609 10.43,6.0976 17.46,7.9687 7,1.8594 15.29,2.8008 24.82,2.8008 2.65,0 5.19,-0.082 7.63,-0.2383 2.44,-0.1523 4.62,-0.3125 6.57,-0.4726 1.93,-0.1485 3.55,-0.3086 4.84,-0.461 1.26,-0.1484 2.06,-0.2695 2.38,-0.3476 -0.32,5.7383 -1.19,10.4687 -2.62,14.1875 -1.43,3.7305 -3.27,6.6601 -5.53,8.793 -2.25,2.1287 -4.8,3.6097 -7.68,4.4177 -2.86,0.821 -5.85,1.223 -8.96,1.223 -3.81,0 -6.78,-0.332 -8.96,-0.981 -2.18,-0.66 -4.08,-1.402 -5.75,-2.222 -1.67,-0.8088 -3.31,-1.5471 -4.95,-2.1995 -1.63,-0.6679 -3.8,-1 -6.51,-1 -2.11,0 -4.05,0.3516 -5.89,1.0625 -1.82,0.6797 -3.62,1.699 -5.4,3.008 l -6.63,4.781"
         style="fill:#1d3c65;fill-opacity:1;fill-rule:nonzero;stroke:none"
         id="path64" /><path
         d="m 2438.25,32.6992 c 0,-1.2383 0.22,-2.4883 0.59,-3.7304 0.4,-1.2383 0.93,-2.379 1.63,-3.418 0.7,-1.0508 1.57,-1.9024 2.62,-2.5703 1.05,-0.6485 2.27,-0.9805 3.67,-0.9805 l 2.78,0.3516 c 3.35,0.9297 6.25,1.3867 8.73,1.3867 3.19,0 5.99,-0.8164 8.39,-2.4375 2.4,-1.6289 4.41,-3.6524 6.05,-6.0508 l 2.8,-4.0703 c -1.41,-1.39064 -3.3,-2.78126 -5.65,-4.12892 C 2467.49,5.67969 2464.97,4.5 2462.29,3.5 c -2.67,-1.01172 -5.41,-1.82031 -8.15,-2.44922 -2.74,-0.609374 -5.2,-0.921874 -7.38,-0.921874 -4.88,0 -9.26,0.8125 -13.15,2.441404 -3.87,1.62891 -7.17,3.8711 -9.9,6.73828 -2.7,2.87111 -4.8,6.31251 -6.27,10.30081 -1.47,4 -2.22,8.3594 -2.22,13.0898 v 69.3518 h -20.35 v 12.558 c 0,6.442 5.93,9.661 17.81,9.661 h 2.54 v 25.121 c 0,2.48 0.29,4.82 0.88,6.988 0.59,2.172 1.23,4.031 1.91,5.582 0.86,1.871 1.8,3.527 2.8,5.008 h 17.44 V 124.16 h 33.87 v -22.109 h -33.87 V 32.6992"
         style="fill:#1d3c65;fill-opacity:1;fill-rule:nonzero;stroke:none"
         id="path66" /><path
         d="m 2538.66,78.3086 h 68.42 c -1.55,3.6406 -3.56,6.9922 -6.04,10.0625 -2.5,3.0703 -5.35,5.6992 -8.56,7.918 -3.22,2.2109 -6.77,3.9299 -10.64,5.1719 -3.89,1.238 -7.92,1.871 -12.1,1.871 -4.58,0 -8.94,-0.73 -13.09,-2.16 -4.15,-1.4337 -7.92,-3.4415 -11.29,-5.9923 -3.37,-2.5586 -6.29,-5.5977 -8.73,-9.1406 -2.44,-3.5196 -4.28,-7.3789 -5.53,-11.5703 0.63,0.8515 1.56,1.7109 2.81,2.5625 1.23,0.8476 2.82,1.2773 4.75,1.2773 z m 92.28,-5 c 0,-2.7188 -0.53,-5.1367 -1.57,-7.2695 -1.06,-2.1407 -2.35,-3.9571 -3.9,-5.4805 -1.55,-1.5 -3.28,-2.6602 -5.2,-3.4766 -1.88,-0.8203 -3.69,-1.2226 -5.39,-1.2226 h -84.93 c 0.68,-4.7383 2.24,-9.1211 4.64,-13.1485 2.4,-4.039 5.39,-7.5507 8.96,-10.5312 3.58,-2.9883 7.61,-5.3281 12.09,-7.0391 4.52,-1.7109 9.21,-2.5586 14.1,-2.5586 3.55,0 6.98,0.4375 10.3,1.3399 3.29,0.8867 6.42,2.1484 9.35,3.7773 1.56,0.8516 3.07,1.461 4.55,1.8711 1.47,0.3711 3.1,0.5703 4.88,0.5703 2.48,0 4.73,-0.4609 6.75,-1.3906 2.02,-0.9414 3.91,-2.2891 5.69,-4.0781 l 4.43,-4.4219 c -5.81,-6.2109 -12.64,-11.10937 -20.48,-14.71875 -7.83,-3.60937 -16.33,-5.402344 -25.47,-5.402344 -8.62,0 -16.74,1.640624 -24.38,4.941404 -7.65,3.28907 -14.31,7.78909 -20.02,13.48829 -5.69,5.7031 -10.2,12.3828 -13.49,20.0234 -3.3,7.6368 -4.95,15.7578 -4.95,24.3672 0,8.6211 1.65,16.7422 4.95,24.3828 3.29,7.6289 7.8,14.309 13.49,20.008 5.71,5.699 12.37,10.191 20.02,13.492 7.64,3.309 15.76,4.949 24.38,4.949 7.21,0 14.11,-1.199 20.71,-3.609 6.59,-2.402 12.56,-5.703 17.92,-9.891 5.34,-4.179 9.94,-9.152 13.78,-14.8904 3.85,-5.7422 6.61,-11.9804 8.32,-18.7304 0.22,-0.8516 0.34,-1.75 0.34,-2.6797 0,-0.9297 0.03,-1.8203 0.13,-2.6719"
         style="fill:#1d3c65;fill-opacity:1;fill-rule:nonzero;stroke:none"
         id="path68" /><path
         d="m 2699.23,124.031 c 0.69,-1 1.27,-1.929 1.7,-2.793 0.42,-0.847 0.84,-1.879 1.21,-3.078 0.4,-1.199 0.58,-2.5 0.58,-3.898 v -8.492 c 1.41,2.789 3.34,5.378 5.83,7.789 2.48,2.402 5.26,4.531 8.36,6.339 3.11,1.832 6.46,3.262 10.08,4.313 3.6,1.039 7.27,1.57 10.98,1.57 6.29,0 12.24,-1.133 17.8,-3.383 l -1.74,-9.886 c -0.62,-3.25 -2.01,-5.801 -4.19,-7.621 -2.17,-1.821 -4.84,-2.731 -8.02,-2.731 -0.38,0 -0.63,0.02 -0.71,0.059 -0.07,0.031 -0.2,0.062 -0.4,0.062 -0.18,0 -0.49,0.008 -0.87,0.059 -0.4,0.039 -1.09,0.058 -2.1,0.058 -4.65,0 -9.05,-0.687 -13.2,-2.039 -4.14,-1.3707 -7.8,-3.1207 -10.94,-5.2887 -3.14,-2.1797 -5.68,-4.6484 -7.61,-7.3984 -1.96,-2.7422 -3.03,-5.5235 -3.27,-8.3125 V 1.87109 h -23.03 V 124.031 h 19.54"
         style="fill:#1d3c65;fill-opacity:1;fill-rule:nonzero;stroke:none"
         id="path70" /><path
         d="m 900.781,47.2383 c -2.121,-4.8789 -5.019,-9.1367 -8.652,-12.7891 -3.656,-3.6484 -7.918,-6.539 -12.805,-8.6679 -4.886,-2.1329 -10.129,-3.1993 -15.715,-3.1993 -5.586,0 -10.816,1.0664 -15.699,3.1993 -4.887,2.1289 -9.144,5.0195 -12.801,8.6679 -3.64,3.6524 -6.535,7.9102 -8.671,12.7891 -2.125,4.8906 -3.204,10.1211 -3.204,15.7109 0,0.0196 0.008,0.0391 0.008,0.0625 h -0.137 c 0.004,14.1367 9.239,28.9883 17.375,42.0903 3.407,5.449 6.614,10.687 9.161,15.609 5.531,10.777 10.199,20.129 13.925,27.68 3.719,-7.559 8.387,-16.942 13.918,-27.7 2.567,-4.941 5.813,-10.179 9.219,-15.652 8.551,-13.7304 17.414,-27.9296 17.414,-42.0273 h -0.14 c 0,-0.0234 0.007,-0.0429 0.007,-0.0625 0,-5.5898 -1.062,-10.8203 -3.203,-15.7109 z m 25.657,15.7734 h -0.145 c -0.004,20.4375 -11.027,38.1483 -20.762,53.7693 -3.07,4.918 -6.023,9.629 -8.308,14.078 -14.907,28.93 -23.457,47.621 -23.516,47.762 -1.793,3.938 -5.715,6.461 -10.047,6.481 -4.742,0.386 -8.269,-2.481 -10.105,-6.422 -0.039,-0.098 -8.684,-18.692 -23.653,-47.84 -2.285,-4.43 -5.199,-9.121 -8.269,-14.02 -9.695,-15.64 -20.699,-33.3512 -20.699,-53.8083 h -0.133 c 0,-0.0234 -0.004,-0.0429 -0.004,-0.0625 0,-8.5976 1.644,-16.7304 4.941,-24.3672 3.293,-7.6406 7.782,-14.3203 13.481,-20.0234 5.699,-5.6992 12.386,-10.19922 20.019,-13.48829 7.649,-3.30078 15.774,-4.941404 24.371,-4.941404 8.618,0 16.739,1.640624 24.387,4.941404 7.633,3.28907 14.301,7.78909 20,13.48829 5.699,5.7031 10.207,12.3828 13.504,20.0234 3.297,7.6368 4.941,15.7696 4.941,24.3672 0,0.0196 -0.003,0.0391 -0.003,0.0625"
         style="fill:#1d3c65;fill-opacity:1;fill-rule:nonzero;stroke:none"
         id="path72" /><g
         id="g74"><g
           id="g76"
           clip-path="url(#clipPath80)"><path
             d="m 1446.38,1440.17 0.36,184.52 -247.27,0.48 -26.59,-16.26 273.5,-168.74"
             style="fill:#214979;fill-opacity:1;fill-rule:nonzero;stroke:none"
             id="path82" /><path
             d="m 1446.38,1440.17 -273.5,168.74 -0.65,-336.41 z"
             style="fill:#1d365e;fill-opacity:1;fill-rule:nonzero;stroke:none"
             id="path84" /><path
             d="m 1172.23,1272.5 273.49,-168.73 0.66,336.4 z"
             style="fill:#428ab5;fill-opacity:1;fill-rule:nonzero;stroke:none"
             id="path86" /><path
             d="m 1172.23,1272.5 273.49,-168.73 0.66,336.4 z"
             style="fill:none;stroke:#428ab5;stroke-width:10;stroke-linecap:butt;stroke-linejoin:miter;stroke-miterlimit:10;stroke-dasharray:none;stroke-opacity:1"
             id="path88" /><path
             d="m 1171.57,936.102 274.15,167.668 -273.49,168.73 z"
             style="fill:#75d2e7;fill-opacity:1;fill-rule:nonzero;stroke:none"
             id="path90" /><path
             d="m 1171.57,936.102 2.25,-1.391 271.57,-0.539 0.33,169.598 -274.15,-167.668"
             style="fill:#95dbd8;fill-opacity:1;fill-rule:nonzero;stroke:none"
             id="path92" /><path
             d="m 1720.54,1607.84 -26.53,16.36 -247.27,0.49 -0.36,-184.52 274.16,167.67"
             style="fill:#1d365e;fill-opacity:1;fill-rule:nonzero;stroke:none"
             id="path94" /><path
             d="m 1720.54,1607.84 -274.16,-167.67 273.49,-168.74 z"
             style="fill:#30789a;fill-opacity:1;fill-rule:nonzero;stroke:none"
             id="path96" /><path
             d="m 1446.38,1440.17 -0.66,-336.4 274.15,167.66 z"
             style="fill:#4590b9;fill-opacity:1;fill-rule:nonzero;stroke:none"
             id="path98" /><path
             d="m 1445.72,1103.77 273.5,-168.739 0.65,336.399 z"
             style="fill:#5dc3db;fill-opacity:1;fill-rule:nonzero;stroke:none"
             id="path100" /><path
             d="m 1445.72,1103.77 -0.33,-169.598 271.56,-0.524 2.27,1.383 -273.5,168.739"
             style="fill:#75d2e7;fill-opacity:1;fill-rule:nonzero;stroke:none"
             id="path102" /><path
             d="m 1716.95,933.648 2.27,-0.007 v 1.39 z"
             style="fill:#81d6e1;fill-opacity:1;fill-rule:nonzero;stroke:none"
             id="path104" /><path
             d="m 1994.03,1439.1 0.36,184.52 -247.27,0.48 -26.58,-16.26 273.49,-168.74"
             style="fill:#214979;fill-opacity:1;fill-rule:nonzero;stroke:none"
             id="path106" /><path
             d="m 1994.03,1439.1 -273.49,168.74 -0.67,-336.41 z"
             style="fill:#2d6a96;fill-opacity:1;fill-rule:nonzero;stroke:none"
             id="path108" /><path
             d="m 1719.87,1271.43 273.5,-168.73 0.66,336.4 z"
             style="fill:#30789a;fill-opacity:1;fill-rule:nonzero;stroke:none"
             id="path110" /><path
             d="m 1719.22,935.031 274.15,167.669 -273.5,168.73 z"
             style="fill:#3ea0c3;fill-opacity:1;fill-rule:nonzero;stroke:none"
             id="path112" /><path
             d="m 1719.22,935.031 2.25,-1.39 271.57,-0.532 0.33,169.591 -274.15,-167.669"
             style="fill:#9adee9;fill-opacity:1;fill-rule:nonzero;stroke:none"
             id="path114" /><path
             d="m 1719.22,933.641 h 2.25 l -2.25,1.39 z"
             style="fill:#68ccdc;fill-opacity:1;fill-rule:nonzero;stroke:none"
             id="path116" /><path
             d="m 2268.18,1606.77 -26.51,16.36 -247.28,0.49 -0.36,-184.52 274.15,167.67"
             style="fill:#1d365e;fill-opacity:1;fill-rule:nonzero;stroke:none"
             id="path118" /><path
             d="m 2268.18,1606.77 -274.15,-167.67 273.5,-168.74 z"
             style="fill:#214979;fill-opacity:1;fill-rule:nonzero;stroke:none"
             id="path120" /><path
             d="m 1994.03,1439.1 -0.66,-336.4 274.16,167.66 z"
             style="fill:#438cb4;fill-opacity:1;fill-rule:nonzero;stroke:none"
             id="path122" /><path
             d="m 1993.37,1102.7 273.51,-168.739 0.65,336.399 z"
             style="fill:#95dbd8;fill-opacity:1;fill-rule:nonzero;stroke:none"
             id="path124" /><path
             d="m 1993.37,1102.7 -0.33,-169.591 271.57,-0.539 2.27,1.391 -273.51,168.739"
             style="fill:#95dbd8;fill-opacity:1;fill-rule:nonzero;stroke:none"
             id="path126" /><path
             d="m 2264.61,932.57 h 2.26 l 0.01,1.391 z"
             style="fill:#56afcb;fill-opacity:1;fill-rule:nonzero;stroke:none"
             id="path128" /><path
             d="m 2541.68,1438.03 0.36,184.51 -247.26,0.49 -26.6,-16.26 273.5,-168.74"
             style="fill:#214979;fill-opacity:1;fill-rule:nonzero;stroke:none"
             id="path130" /><path
             d="m 2541.68,1438.03 -273.5,168.74 -0.65,-336.41 z"
             style="fill:#2d6a96;fill-opacity:1;fill-rule:nonzero;stroke:none"
             id="path132" /><path
             d="m 2267.53,1270.36 273.5,-168.73 0.65,336.4 z"
             style="fill:#43abc1;fill-opacity:1;fill-rule:nonzero;stroke:none"
             id="path134" /><path
             d="m 2266.88,933.961 274.15,167.669 -273.5,168.73 z"
             style="fill:#5dc3db;fill-opacity:1;fill-rule:nonzero;stroke:none"
             id="path136" /><path
             d="m 2266.88,933.961 2.25,-1.402 271.56,-0.52 0.34,169.591 -274.15,-167.669"
             style="fill:#9adee9;fill-opacity:1;fill-rule:nonzero;stroke:none"
             id="path138" /><path
             d="m 2266.87,932.57 2.26,-0.011 -2.25,1.402 z"
             style="fill:#53adcc;fill-opacity:1;fill-rule:nonzero;stroke:none"
             id="path140" /><path
             d="m 2815.84,1605.7 -26.52,16.36 -247.28,0.48 -0.36,-184.51 274.16,167.67"
             style="fill:#214979;fill-opacity:1;fill-rule:nonzero;stroke:none"
             id="path142" /><path
             d="m 2815.84,1605.7 -274.16,-167.67 273.51,-168.74 z"
             style="fill:#214979;fill-opacity:1;fill-rule:nonzero;stroke:none"
             id="path144" /><path
             d="m 2541.68,1438.03 -0.65,-336.4 274.16,167.66 z"
             style="fill:#3ea0c3;fill-opacity:1;fill-rule:nonzero;stroke:none"
             id="path146" /><path
             d="m 2541.03,1101.63 273.49,-168.739 0.67,336.399 z"
             style="fill:#5dc3db;fill-opacity:1;fill-rule:nonzero;stroke:none"
             id="path148" /><path
             d="m 2541.03,1101.63 -0.34,-169.591 271.58,-0.539 2.25,1.391 -273.49,168.739"
             style="fill:#95dbd8;fill-opacity:1;fill-rule:nonzero;stroke:none"
             id="path150" /><path
             d="M 2816.02,928.82 2541.87,761.148 2815.36,592.422 Z"
             style="fill:#75d2e7;fill-opacity:1;fill-rule:nonzero;stroke:none"
             id="path152" /><path
             d="m 2814.5,930.109 -2.25,1.391 -271.58,0.539 -0.33,-169.598 274.16,167.668"
             style="fill:#95dbd8;fill-opacity:1;fill-rule:nonzero;stroke:none"
             id="path154" /><path
             d="m 2541.87,761.148 -273.5,168.743 -0.66,-336.403 z"
             style="fill:#5dc3db;fill-opacity:1;fill-rule:nonzero;stroke:none"
             id="path156" /><path
             d="m 2540.4,762.57 0.33,169.59 -271.57,0.531 -2.26,-1.382 273.5,-168.739"
             style="fill:#75d2e7;fill-opacity:1;fill-rule:nonzero;stroke:none"
             id="path158" /><path
             d="m 2270.63,931.281 h -2.26 v -1.39 z"
             style="fill:#81d6e1;fill-opacity:1;fill-rule:nonzero;stroke:none"
             id="path160" /><path
             d="M 2268.37,929.891 1994.21,762.23 2267.71,593.488 Z"
             style="fill:#5dc3db;fill-opacity:1;fill-rule:nonzero;stroke:none"
             id="path162" /><path
             d="m 2268.37,929.891 -2.26,1.398 -271.57,0.531 -0.33,-169.59 274.16,167.661"
             style="fill:#9adee9;fill-opacity:1;fill-rule:nonzero;stroke:none"
             id="path164" /><path
             d="m 2268.37,931.281 -2.26,0.008 2.26,-1.398 z"
             style="fill:#68ccdc;fill-opacity:1;fill-rule:nonzero;stroke:none"
             id="path166" /><path
             d="m 1994.21,762.23 -273.5,168.739 -0.65,-336.41 z"
             style="fill:#95dbd8;fill-opacity:1;fill-rule:nonzero;stroke:none"
             id="path168" /><path
             d="m 1994.21,762.23 0.33,169.59 -271.56,0.532 -2.27,-1.383 273.5,-168.739"
             style="fill:#95dbd8;fill-opacity:1;fill-rule:nonzero;stroke:none"
             id="path170" /><path
             d="m 1722.98,932.352 h -2.26 l -0.01,-1.383 z"
             style="fill:#56afcb;fill-opacity:1;fill-rule:nonzero;stroke:none"
             id="path172" /><path
             d="M 1720.71,930.969 1446.56,763.301 1720.06,594.559 Z"
             style="fill:#5dc3db;fill-opacity:1;fill-rule:nonzero;stroke:none"
             id="path174" /><path
             d="m 1719.87,932.301 -2.25,1.398 -271.57,0.531 -0.33,-169.601 274.15,167.672"
             style="fill:#9adee9;fill-opacity:1;fill-rule:nonzero;stroke:none"
             id="path176" /><path
             d="m 1720.72,932.352 -2.26,0.007 2.25,-1.39 z"
             style="fill:#53adcc;fill-opacity:1;fill-rule:nonzero;stroke:none"
             id="path178" /><path
             d="m 1445.58,764.719 0.33,169.59 -271.57,0.531 -2.26,-1.379 273.5,-168.742"
             style="fill:#95dbd8;fill-opacity:1;fill-rule:nonzero;stroke:none"
             id="path180" /><path
             d="m 1461.96,784.449 -273.49,168.742 -0.66,-336.402 z"
             style="fill:#5dc3db;fill-opacity:1;fill-rule:nonzero;stroke:none"
             id="path182" /></g></g></g></g></svg>
