<?xml version="1.0" encoding="UTF-8" standalone="no"?>
<svg
   xmlns:dc="http://purl.org/dc/elements/1.1/"
   xmlns:cc="http://creativecommons.org/ns#"
   xmlns:rdf="http://www.w3.org/1999/02/22-rdf-syntax-ns#"
   xmlns:svg="http://www.w3.org/2000/svg"
   xmlns="http://www.w3.org/2000/svg"
   viewBox="0 0 414.96533 323.54666"
   height="323.54666"
   width="414.96533"
   xml:space="preserve"
   id="svg2"
   version="1.1"><metadata
     id="metadata8"><rdf:RDF><cc:Work
         rdf:about=""><dc:format>image/svg+xml</dc:format><dc:type
           rdf:resource="http://purl.org/dc/dcmitype/StillImage" /></cc:Work></rdf:RDF></metadata><defs
     id="defs6"><clipPath
       id="clipPath18"
       clipPathUnits="userSpaceOnUse"><path
         id="path16"
         d="M 0,242.66 H 311.224 V 0 H 0 Z" /></clipPath></defs><g
     transform="matrix(1.3333333,0,0,-1.3333333,0,323.54667)"
     id="g10"><g
       id="g12"><g
         clip-path="url(#clipPath18)"
         id="g14"><g
           transform="translate(39.9483,46.4805)"
           id="g20"><path
             id="path22"
             style="fill:#293d60;fill-opacity:1;fill-rule:nonzero;stroke:none"
             d="m 0,0 c -2.143,-2.143 -4.624,-3.821 -7.449,-5.042 -2.827,-1.221 -5.867,-1.831 -9.122,-1.831 -3.21,0 -6.24,0.61 -9.087,1.831 -2.848,1.221 -5.331,2.889 -7.452,5.01 -2.118,2.12 -3.789,4.602 -5.009,7.449 -1.219,2.849 -1.829,5.877 -1.829,9.09 0,3.21 0.61,6.24 1.829,9.087 1.22,2.847 2.891,5.331 5.009,7.452 2.121,2.118 4.604,3.788 7.452,5.009 2.847,1.221 5.877,1.831 9.087,1.831 3.255,0 6.295,-0.61 9.122,-1.831 2.825,-1.221 5.306,-2.901 7.449,-5.042 l -5.459,-5.459 c -1.501,1.498 -3.191,2.642 -5.074,3.435 -1.884,0.791 -3.898,1.189 -6.038,1.189 -2.098,0 -4.09,-0.398 -5.973,-1.189 -1.884,-0.793 -3.577,-1.937 -5.074,-3.435 -1.498,-1.5 -2.645,-3.191 -3.436,-5.074 -0.793,-1.886 -1.188,-3.875 -1.188,-5.973 0,-2.099 0.395,-4.1 1.188,-6.006 0.791,-1.905 1.938,-3.608 3.436,-5.106 1.497,-1.5 3.19,-2.632 5.074,-3.403 1.883,-0.771 3.875,-1.157 5.973,-1.157 2.14,0 4.154,0.386 6.038,1.157 1.883,0.771 3.573,1.903 5.074,3.403 z" /></g><g
           transform="translate(50.5455,77.6947)"
           id="g24"><path
             id="path26"
             style="fill:#293d60;fill-opacity:1;fill-rule:nonzero;stroke:none"
             d="m 0,0 v -10.919 h 16.764 l 1.925,-7.706 H 0 v -18.627 h -7.708 v 44.96 h 30.252 l 0,-7.708 z" /></g><g
           transform="translate(145.505,64.9134)"
           id="g28"><path
             id="path30"
             style="fill:#293d60;fill-opacity:1;fill-rule:nonzero;stroke:none"
             d="m 0,0 c 0.064,-0.643 0.096,-1.285 0.096,-1.925 0,-3.213 -0.61,-6.243 -1.831,-9.09 -1.218,-2.847 -2.889,-5.331 -5.01,-7.449 -2.118,-2.121 -4.601,-3.791 -7.448,-5.01 -2.85,-1.221 -5.878,-1.831 -9.09,-1.831 -3.211,0 -6.241,0.61 -9.088,1.831 -2.847,1.219 -5.331,2.889 -7.451,5.01 -2.118,2.118 -3.789,4.602 -5.01,7.449 -1.218,2.847 -1.829,5.877 -1.829,9.09 0,3.21 0.611,6.238 1.829,9.087 1.221,2.847 2.892,5.331 5.01,7.449 2.12,2.121 4.604,3.791 7.451,5.01 2.847,1.221 5.877,1.831 9.088,1.831 3.254,0 6.294,-0.61 9.122,-1.831 2.825,-1.219 5.286,-2.899 7.384,-5.042 l -5.395,-5.457 c -1.498,1.498 -3.2,2.642 -5.106,3.435 -1.905,0.791 -3.907,1.187 -6.005,1.187 -2.099,0 -4.088,-0.396 -5.974,-1.187 -1.883,-0.793 -3.574,-1.937 -5.074,-3.435 -1.497,-1.5 -2.642,-3.191 -3.435,-5.074 -0.793,-1.885 -1.189,-3.877 -1.189,-5.973 0,-2.101 0.396,-4.103 1.189,-6.006 0.793,-1.908 1.938,-3.608 3.435,-5.108 1.5,-1.498 3.191,-2.632 5.074,-3.403 1.886,-0.772 3.875,-1.155 5.974,-1.155 2.098,0 4.1,0.383 6.005,1.155 1.906,0.771 3.608,1.905 5.106,3.403 2.012,2.098 3.384,4.517 4.11,7.258 h -20.809 l 1.927,7.709 H -0.225 C -0.141,1.285 -0.064,0.643 0,0" /></g><g
           transform="translate(182.4033,69.2812)"
           id="g32"><path
             id="path34"
             style="fill:#293d60;fill-opacity:1;fill-rule:nonzero;stroke:none"
             d="m 0,0 c 0,-1.629 -0.225,-3.178 -0.675,-4.656 -0.45,-1.478 -1.07,-2.837 -1.861,-4.078 -0.793,-1.243 -1.757,-2.368 -2.891,-3.374 -1.135,-1.005 -2.388,-1.828 -3.757,-2.471 L 0,-28.839 h -9.184 l -8.158,12.654 h -5.267 l 3.149,7.705 h 3.339 c 2.313,0 4.303,0.836 5.973,2.507 0.771,0.813 1.369,1.734 1.799,2.763 0.428,1.025 0.641,2.095 0.641,3.21 0,1.112 -0.213,2.185 -0.641,3.21 -0.43,1.029 -1.028,1.928 -1.799,2.699 -1.67,1.668 -3.66,2.504 -5.973,2.504 h -9.12 V 4.174 -8.48 -16.185 -28.839 h -7.708 v 12.654 20.359 11.947 h 16.828 c 2.227,0 4.312,-0.43 6.262,-1.285 1.948,-0.858 3.651,-2.012 5.106,-3.467 C -3.297,9.913 -2.143,8.21 -1.285,6.263 -0.428,4.313 0,2.227 0,0" /></g><g
           transform="translate(209.3138,86.3657)"
           id="g36"><path
             id="path38"
             style="fill:#293d60;fill-opacity:1;fill-rule:nonzero;stroke:none"
             d="m 0,0 c 3.21,0 6.24,-0.61 9.087,-1.831 2.848,-1.219 5.331,-2.889 7.452,-5.01 2.12,-2.118 3.789,-4.602 5.009,-7.449 1.221,-2.849 1.829,-5.877 1.829,-9.09 0,-3.21 -0.608,-6.24 -1.829,-9.087 -1.22,-2.847 -2.889,-5.331 -5.009,-7.452 -2.121,-2.118 -4.604,-3.788 -7.452,-5.009 C 6.24,-46.147 3.21,-46.757 0,-46.757 c -3.21,0 -6.24,0.61 -9.087,1.829 -2.85,1.221 -5.331,2.891 -7.452,5.009 -2.12,2.121 -3.789,4.605 -5.009,7.452 -1.221,2.847 -1.829,5.877 -1.829,9.087 0,3.213 0.608,6.241 1.829,9.09 1.22,2.847 2.889,5.331 5.009,7.449 2.121,2.121 4.602,3.791 7.452,5.01 C -6.24,-0.61 -3.21,0 0,0 m 0,-7.708 c -2.098,0 -4.09,-0.396 -5.973,-1.187 -1.886,-0.793 -3.577,-1.937 -5.074,-3.437 -1.498,-1.498 -2.645,-3.191 -3.436,-5.074 -0.793,-1.884 -1.188,-3.876 -1.188,-5.974 0,-2.098 0.395,-4.1 1.188,-6.003 0.791,-1.908 1.938,-3.608 3.436,-5.108 1.497,-1.498 3.188,-2.632 5.074,-3.404 1.883,-0.771 3.875,-1.156 5.973,-1.156 2.098,0 4.1,0.385 6.006,1.156 1.905,0.772 3.605,1.906 5.106,3.404 1.497,1.5 2.632,3.2 3.403,5.108 0.771,1.903 1.156,3.905 1.156,6.003 0,2.098 -0.385,4.09 -1.156,5.974 -0.771,1.883 -1.906,3.576 -3.403,5.074 -1.501,1.5 -3.201,2.644 -5.106,3.437 C 4.1,-8.104 2.098,-7.708 0,-7.708" /></g><g
           transform="translate(273.991,85.4021)"
           id="g40"><path
             id="path42"
             style="fill:#293d60;fill-opacity:1;fill-rule:nonzero;stroke:none"
             d="m 0,0 v -26.976 c 0,-2.612 -0.492,-5.064 -1.478,-7.352 -0.986,-2.294 -2.333,-4.296 -4.046,-6.006 -1.712,-1.715 -3.714,-3.062 -6.005,-4.048 -2.291,-0.984 -4.743,-1.475 -7.353,-1.475 -2.612,0 -5.064,0.491 -7.355,1.475 -2.291,0.986 -4.293,2.333 -6.005,4.048 -1.713,1.71 -3.062,3.712 -4.046,6.006 -0.986,2.288 -1.478,4.74 -1.478,7.352 V 0 h 7.708 v -26.976 c 0,-1.497 0.277,-2.921 0.833,-4.27 0.556,-1.35 1.372,-2.561 2.442,-3.628 1.07,-1.073 2.279,-1.886 3.628,-2.442 1.35,-0.556 2.773,-0.836 4.273,-0.836 3.082,0 5.717,1.093 7.899,3.278 1.07,1.067 1.883,2.278 2.442,3.628 0.556,1.349 0.833,2.773 0.833,4.27 V 0 Z" /></g><g
           transform="translate(301.2227,84.1179)"
           id="g44"><path
             id="path46"
             style="fill:#293d60;fill-opacity:1;fill-rule:nonzero;stroke:none"
             d="m 0,0 c 1.97,-0.858 3.682,-2.014 5.138,-3.47 1.456,-1.456 2.612,-3.156 3.468,-5.106 0.857,-1.947 1.285,-4.036 1.285,-6.26 0,-2.227 -0.428,-4.325 -1.285,-6.295 -0.856,-1.97 -2.012,-3.682 -3.468,-5.138 -1.456,-1.456 -3.168,-2.612 -5.138,-3.47 -1.97,-0.855 -4.068,-1.282 -6.295,-1.282 h -6.421 l 3.147,7.705 h 3.274 c 2.313,0 4.303,0.836 5.974,2.507 1.67,1.67 2.506,3.66 2.506,5.973 0,2.353 -0.836,4.325 -2.506,5.909 -1.671,1.668 -3.661,2.504 -5.974,2.504 h -9.055 v -37.252 h -7.709 V 1.285 H -6.295 C -4.068,1.285 -1.97,0.855 0,0" /></g><g
           transform="translate(74.2357,47.5911)"
           id="g48"><path
             id="path50"
             style="fill:#0099b1;fill-opacity:1;fill-rule:nonzero;stroke:none"
             d="M 0,0 4.842,-8.386 9.681,0 Z" /></g><g
           transform="translate(88.7586,39.2063)"
           id="g52"><path
             id="path54"
             style="fill:#c10e1a;fill-opacity:1;fill-rule:nonzero;stroke:none"
             d="M 0,0 -4.842,8.386 -9.683,0 Z" /></g><g
           transform="translate(83.9176,47.5911)"
           id="g56"><path
             id="path58"
             style="fill:#a21d1d;fill-opacity:1;fill-rule:nonzero;stroke:none"
             d="M 0,0 4.842,-8.386 9.683,0 Z" /></g><g
           transform="translate(83.9176,47.5911)"
           id="g60"><path
             id="path62"
             style="fill:#67b3c4;fill-opacity:1;fill-rule:nonzero;stroke:none"
             d="M 0,0 -4.842,8.386 -9.681,0 Z" /></g><g
           transform="translate(79.0768,55.976)"
           id="g64"><path
             id="path66"
             style="fill:#585857;fill-opacity:1;fill-rule:nonzero;stroke:none"
             d="M 0,0 4.842,-8.386 9.683,0 Z" /></g><g
           transform="translate(93.5994,47.5911)"
           id="g68"><path
             id="path70"
             style="fill:#6f6e6e;fill-opacity:1;fill-rule:nonzero;stroke:none"
             d="M 0,0 -4.842,8.386 -9.683,0 Z" /></g><g
           transform="translate(25.4516,137.083)"
           id="g72"><path
             id="path74"
             style="fill:#293d60;fill-opacity:1;fill-rule:nonzero;stroke:none"
             d="m 0,0 c -10.331,11.428 -13.16,25.76 -13.19,25.906 l -0.193,0.87 -0.074,-0.898 v -1.492 c 0.351,-5.314 2.437,-23.847 14.646,-37.593 9.282,-10.455 23.389,-16.218 39.731,-16.218 33.406,0 45.753,29.904 48.069,36.501 1.705,-1.745 3.351,-3.28 4.884,-4.54 2.679,-2.207 5.694,-4.357 8.951,-6.399 13.131,-6.445 25.214,-5.116 27.099,-3.564 C 116.177,-2.106 112.075,0.554 103.21,10.42 96.369,18.034 91.384,27.047 87.261,35.262 84.372,41.026 81.874,46.001 78.977,49.473 70.485,59.668 56.245,63.845 40.885,60.654 23.343,57.014 15.37,43.287 15.254,31.296 15.138,19.243 22.695,9.72 34.511,7.029 c 17.99,-4.1 25.164,8.44 25.236,8.566 l 0.2,0.366 -0.398,-0.114 c -0.081,-0.027 -8.383,-2.385 -13.059,1.347 -2.35,1.873 -3.413,4.982 -3.156,9.233 0.19,3.218 2.081,5.899 5.326,7.555 5.311,2.702 12.995,2.054 18.689,-1.584 3.114,-1.992 7.414,-6.964 12.787,-14.782 l 1.426,-1.955 C 78.07,8.289 64.618,-16.331 37.309,-16.245 23.721,-16.415 9.078,-10.039 0,0 m 254.326,23.447 c 0,0 -26.66,91.863 -120.804,43.43 l 0.242,-0.541 c -11.717,16.299 -28.879,31.842 -49.55,37.141 -6.186,1.584 -13.175,2.397 -20.258,2.001 C 40.03,104.136 19.917,93.05 6.191,78.132 4.664,76.417 3.262,74.714 1.999,73.058 c 0,0 -0.19,-0.299 -0.356,-0.549 -0.111,-0.165 -0.474,-0.86 -0.474,-0.86 l 1.092,1.189 c 0.24,0.255 24.196,25.515 65.805,16.999 26.822,-5.484 38.796,-18.521 50.375,-31.128 3.574,-3.89 6.95,-7.565 10.748,-11.028 15.56,-14.196 24.312,-17.445 24.398,-17.48 l 0.344,-0.121 -0.124,0.343 c -0.121,0.329 -5.133,13.653 -15.51,29.549 -0.062,0.091 -0.922,1.248 -1.56,2.12 7.629,4.476 66.783,30.745 93.013,-31.641 4.421,-1.034 10.273,-2.089 13.882,-3.218 7.387,-2.309 10.694,-3.786 10.694,-3.786" /></g><g
           transform="translate(12.8366,10.6436)"
           id="g76"><path
             id="path78"
             style="fill:#293d60;fill-opacity:1;fill-rule:nonzero;stroke:none"
             d="m 0,0 c 0,3.215 -2.15,5.691 -5.278,5.691 h -3.91 V -5.691 h 3.91 C -2.15,-5.691 0,-3.215 0,0 m 1.933,0 c 0,-4.214 -3.019,-7.603 -7.211,-7.603 h -5.93 V 7.603 h 5.93 C -1.086,7.603 1.933,4.214 1.933,0" /></g><g
           transform="translate(21.6676,14.0973)"
           id="g80"><path
             id="path82"
             style="fill:#293d60;fill-opacity:1;fill-rule:nonzero;stroke:none"
             d="m 0,0 v -1.977 c -1.629,0.066 -3.389,-0.76 -3.389,-3.323 v -5.756 h -1.889 v 10.861 h 1.889 V -2.02 C -2.693,-0.5 -1.368,0 0,0" /></g><g
           transform="translate(23.619,9.2534)"
           id="g84"><path
             id="path86"
             style="fill:#293d60;fill-opacity:1;fill-rule:nonzero;stroke:none"
             d="M 0,0 H 7.255 C 6.929,2.15 5.387,3.15 3.758,3.15 1.716,3.15 0.304,1.89 0,0 m 3.932,-4.714 c 1.498,0 2.584,0.696 3.128,1.586 L 8.667,-4.04 C 7.711,-5.517 6.06,-6.495 3.888,-6.495 c -3.497,0 -5.821,2.455 -5.821,5.713 0,3.215 2.302,5.713 5.691,5.713 3.28,0 5.409,-2.694 5.409,-5.735 0,-0.282 -0.022,-0.564 -0.066,-0.847 H 0 c 0.369,-1.955 1.911,-3.063 3.932,-3.063" /></g><g
           transform="translate(43.2903,8.4714)"
           id="g88"><path
             id="path90"
             style="fill:#293d60;fill-opacity:1;fill-rule:nonzero;stroke:none"
             d="m 0,0 c 0,2.216 -1.673,3.888 -3.866,3.888 -2.173,0 -3.845,-1.672 -3.845,-3.888 0,-2.216 1.672,-3.888 3.845,-3.888 C -1.673,-3.888 0,-2.216 0,0 M 1.89,5.43 V -5.43 H 0 v 1.868 c -0.869,-1.325 -2.259,-2.151 -4.105,-2.151 -3.02,0 -5.496,2.498 -5.496,5.713 0,3.215 2.476,5.713 5.496,5.713 1.846,0 3.236,-0.826 4.105,-2.151 V 5.43 Z" /></g><g
           transform="translate(63.2006,9.7964)"
           id="g92"><path
             id="path94"
             style="fill:#293d60;fill-opacity:1;fill-rule:nonzero;stroke:none"
             d="m 0,0 v -6.755 h -1.89 v 6.69 c 0,1.716 -0.956,2.65 -2.389,2.65 -1.521,0 -2.672,-0.956 -2.672,-3.302 v -6.038 h -1.89 v 6.69 c 0,1.716 -0.89,2.65 -2.302,2.65 -1.456,0 -2.781,-0.956 -2.781,-3.302 v -6.038 h -1.889 v 10.86 h 1.889 V 2.65 c 0.782,1.216 1.912,1.738 3.237,1.738 1.477,0 2.563,-0.674 3.193,-1.847 0.76,1.239 1.998,1.847 3.41,1.847 C -1.673,4.388 0,2.715 0,0" /></g><g
           transform="translate(72.8992,6.0169)"
           id="g96"><path
             id="path98"
             style="fill:#293d60;fill-opacity:1;fill-rule:nonzero;stroke:none"
             d="m 0,0 c 0,-2.02 -1.738,-3.258 -4.062,-3.258 -2.172,0 -3.693,1.042 -4.323,2.541 l 1.63,0.934 c 0.347,-1.042 1.346,-1.694 2.693,-1.694 1.151,0 2.151,0.413 2.151,1.477 0,2.324 -6.083,0.999 -6.083,4.931 0,1.911 1.651,3.236 3.845,3.236 1.781,0 3.215,-0.847 3.91,-2.259 l -1.586,-0.89 c -0.412,0.977 -1.368,1.39 -2.324,1.39 -0.977,0 -1.933,-0.478 -1.933,-1.455 C -6.082,2.628 0,3.997 0,0" /></g><g
           transform="translate(75.6736)"
           id="g100"><path
             id="path102"
             style="fill:#293d60;fill-opacity:1;fill-rule:nonzero;stroke:none"
             d="M 0,0 H -1.629 L -0.76,5.278 H 1.412 Z" /></g><g
           transform="translate(93.5444,9.7095)"
           id="g104"><path
             id="path106"
             style="fill:#293d60;fill-opacity:1;fill-rule:nonzero;stroke:none"
             d="m 0,0 v -6.669 h -1.89 v 6.56 c 0,1.782 -1.021,2.781 -2.693,2.781 -1.738,0 -3.15,-1.021 -3.15,-3.584 v -5.757 h -1.89 V 8.537 h 1.89 V 2.628 C -6.929,3.91 -5.734,4.475 -4.214,4.475 -1.673,4.475 0,2.78 0,0" /></g><g
           transform="translate(96.8377,9.2534)"
           id="g108"><path
             id="path110"
             style="fill:#293d60;fill-opacity:1;fill-rule:nonzero;stroke:none"
             d="M 0,0 H 7.255 C 6.929,2.15 5.387,3.15 3.758,3.15 1.716,3.15 0.304,1.89 0,0 m 3.932,-4.714 c 1.498,0 2.584,0.696 3.128,1.586 L 8.667,-4.04 C 7.711,-5.517 6.06,-6.495 3.888,-6.495 c -3.497,0 -5.821,2.455 -5.821,5.713 0,3.215 2.302,5.713 5.691,5.713 3.28,0 5.409,-2.694 5.409,-5.735 0,-0.282 -0.022,-0.564 -0.066,-0.847 H 0 c 0.369,-1.955 1.911,-3.063 3.932,-3.063" /></g><g
           transform="translate(116.4885,8.4714)"
           id="g112"><path
             id="path114"
             style="fill:#293d60;fill-opacity:1;fill-rule:nonzero;stroke:none"
             d="m 0,0 c 0,2.216 -1.673,3.888 -3.866,3.888 -2.173,0 -3.845,-1.672 -3.845,-3.888 0,-2.216 1.672,-3.888 3.845,-3.888 C -1.673,-3.888 0,-2.216 0,0 M 1.89,5.43 V -5.43 H 0 v 1.868 c -0.869,-1.325 -2.259,-2.151 -4.105,-2.151 -3.02,0 -5.496,2.498 -5.496,5.713 0,3.215 2.476,5.713 5.496,5.713 1.846,0 3.236,-0.826 4.105,-2.151 V 5.43 Z" /></g><path
           id="path116"
           style="fill:#293d60;fill-opacity:1;fill-rule:nonzero;stroke:none"
           d="m 120.607,18.898 h 1.89 V 3.041 h -1.89 z" /><g
           transform="translate(127.7716,12.0772)"
           id="g118"><path
             id="path120"
             style="fill:#293d60;fill-opacity:1;fill-rule:nonzero;stroke:none"
             d="m 0,0 v -5.887 c 0,-1.65 0.956,-1.542 2.889,-1.455 V -9.036 C -0.369,-9.471 -1.89,-8.602 -1.89,-5.887 V 0 h -2.15 v 1.825 h 2.15 V 4.301 L 0,4.866 V 1.825 H 2.889 V 0 Z" /></g><g
           transform="translate(141.8858,9.7095)"
           id="g122"><path
             id="path124"
             style="fill:#293d60;fill-opacity:1;fill-rule:nonzero;stroke:none"
             d="m 0,0 v -6.669 h -1.89 v 6.56 c 0,1.782 -1.021,2.781 -2.693,2.781 -1.738,0 -3.15,-1.021 -3.15,-3.584 v -5.757 h -1.89 V 8.537 h 1.89 V 2.628 C -6.929,3.91 -5.734,4.475 -4.214,4.475 -1.673,4.475 0,2.78 0,0" /></g><g
           transform="translate(156.5395,5.7345)"
           id="g126"><path
             id="path128"
             style="fill:#293d60;fill-opacity:1;fill-rule:nonzero;stroke:none"
             d="m 0,0 -4.107,4.409 c -1.498,-0.629 -2.02,-1.824 -2.02,-2.867 0,-1.607 1.152,-2.606 3.128,-2.606 1.217,0 2.216,0.369 2.999,1.064 M 2.846,-3.041 1.303,-1.39 c -1.042,-0.978 -2.477,-1.586 -4.345,-1.586 -2.998,0 -5.105,1.673 -5.105,4.388 0,1.803 0.913,3.454 2.781,4.388 -0.565,0.716 -0.978,1.564 -0.978,2.758 0,2.607 2.107,4.236 4.475,4.236 1.999,0 3.802,-1.129 4.541,-3.106 L 0.977,8.71 c -0.434,1.325 -1.5,2.129 -2.803,2.129 -1.368,0 -2.498,-0.89 -2.498,-2.259 0,-1.043 0.587,-1.781 1.347,-2.585 l 4.15,-4.431 c 0.369,0.76 0.63,1.694 0.782,2.759 l 1.738,-1 C 3.497,2.194 3.106,1.064 2.52,0.087 l 2.02,-2.151 z" /></g><g
           transform="translate(166.5411,8.4714)"
           id="g130"><path
             id="path132"
             style="fill:#293d60;fill-opacity:1;fill-rule:nonzero;stroke:none"
             d="m 0,0 c 0,3.215 2.433,5.713 5.713,5.713 2.15,0 3.975,-1.13 4.8,-2.846 L 8.928,1.955 C 8.385,3.106 7.168,3.866 5.713,3.866 3.541,3.866 1.89,2.194 1.89,0 c 0,-2.172 1.651,-3.845 3.823,-3.845 1.477,0 2.672,0.761 3.28,1.89 L 10.6,-2.889 C 9.688,-4.583 7.841,-5.713 5.713,-5.713 2.433,-5.713 0,-3.215 0,0" /></g><g
           transform="translate(187.2128,8.4714)"
           id="g134"><path
             id="path136"
             style="fill:#293d60;fill-opacity:1;fill-rule:nonzero;stroke:none"
             d="m 0,0 c 0,2.216 -1.673,3.888 -3.866,3.888 -2.173,0 -3.845,-1.672 -3.845,-3.888 0,-2.216 1.672,-3.888 3.845,-3.888 C -1.673,-3.888 0,-2.216 0,0 M 1.89,5.43 V -5.43 H 0 v 1.868 c -0.869,-1.325 -2.259,-2.151 -4.105,-2.151 -3.02,0 -5.496,2.498 -5.496,5.713 0,3.215 2.476,5.713 5.496,5.713 1.846,0 3.236,-0.826 4.105,-2.151 V 5.43 Z" /></g><g
           transform="translate(196.6086,14.0973)"
           id="g138"><path
             id="path140"
             style="fill:#293d60;fill-opacity:1;fill-rule:nonzero;stroke:none"
             d="m 0,0 v -1.977 c -1.629,0.066 -3.389,-0.76 -3.389,-3.323 v -5.756 h -1.889 v 10.861 h 1.889 V -2.02 C -2.693,-0.5 -1.368,0 0,0" /></g><g
           transform="translate(198.5587,9.2534)"
           id="g142"><path
             id="path144"
             style="fill:#293d60;fill-opacity:1;fill-rule:nonzero;stroke:none"
             d="M 0,0 H 7.255 C 6.929,2.15 5.387,3.15 3.758,3.15 1.716,3.15 0.304,1.89 0,0 m 3.932,-4.714 c 1.498,0 2.584,0.696 3.128,1.586 L 8.667,-4.04 C 7.711,-5.517 6.06,-6.495 3.888,-6.495 c -3.497,0 -5.821,2.455 -5.821,5.713 0,3.215 2.302,5.713 5.691,5.713 3.28,0 5.409,-2.694 5.409,-5.735 0,-0.282 -0.022,-0.564 -0.066,-0.847 H 0 c 0.369,-1.955 1.911,-3.063 3.932,-3.063" /></g><g
           transform="translate(228.8289,13.9018)"
           id="g146"><path
             id="path148"
             style="fill:#293d60;fill-opacity:1;fill-rule:nonzero;stroke:none"
             d="M 0,0 -3.367,-10.861 H -5.3 l -2.541,8.037 -2.542,-8.037 h -1.933 L -15.683,0 h 1.977 L -11.317,-8.254 -8.754,0 h 1.825 L -4.366,-8.276 -1.977,0 Z" /></g><path
           id="path150"
           style="fill:#293d60;fill-opacity:1;fill-rule:nonzero;stroke:none"
           d="m 230.144,13.902 h 1.89 V 3.041 h -1.89 z m -0.326,3.236 c 0,0.695 0.565,1.282 1.282,1.282 0.695,0 1.26,-0.587 1.26,-1.282 0,-0.695 -0.565,-1.26 -1.26,-1.26 -0.717,0 -1.282,0.565 -1.282,1.26" /><g
           transform="translate(237.3076,12.0772)"
           id="g152"><path
             id="path154"
             style="fill:#293d60;fill-opacity:1;fill-rule:nonzero;stroke:none"
             d="m 0,0 v -5.887 c 0,-1.65 0.956,-1.542 2.889,-1.455 V -9.036 C -0.369,-9.471 -1.89,-8.602 -1.89,-5.887 V 0 h -2.15 v 1.825 h 2.15 V 4.301 L 0,4.866 V 1.825 H 2.889 V 0 Z" /></g><g
           transform="translate(251.4218,9.7095)"
           id="g156"><path
             id="path158"
             style="fill:#293d60;fill-opacity:1;fill-rule:nonzero;stroke:none"
             d="m 0,0 v -6.669 h -1.89 v 6.56 c 0,1.782 -1.021,2.781 -2.693,2.781 -1.738,0 -3.15,-1.021 -3.15,-3.584 v -5.757 h -1.89 V 8.537 h 1.89 V 2.628 C -6.929,3.91 -5.734,4.475 -4.214,4.475 -1.673,4.475 0,2.78 0,0" /></g><g
           transform="translate(272.9817,13.9018)"
           id="g160"><path
             id="path162"
             style="fill:#293d60;fill-opacity:1;fill-rule:nonzero;stroke:none"
             d="M 0,0 -3.367,-10.861 H -5.3 l -2.541,8.037 -2.542,-8.037 h -1.933 L -15.683,0 h 1.977 L -11.317,-8.254 -8.754,0 h 1.825 L -4.366,-8.276 -1.977,0 Z" /></g><g
           transform="translate(282.8554,8.4714)"
           id="g164"><path
             id="path166"
             style="fill:#293d60;fill-opacity:1;fill-rule:nonzero;stroke:none"
             d="m 0,0 c 0,2.216 -1.673,3.888 -3.866,3.888 -2.173,0 -3.845,-1.672 -3.845,-3.888 0,-2.216 1.672,-3.888 3.845,-3.888 C -1.673,-3.888 0,-2.216 0,0 M 1.89,5.43 V -5.43 H 0 v 1.868 c -0.869,-1.325 -2.259,-2.151 -4.105,-2.151 -3.02,0 -5.496,2.498 -5.496,5.713 0,3.215 2.476,5.713 5.496,5.713 1.846,0 3.236,-0.826 4.105,-2.151 V 5.43 Z" /></g><g
           transform="translate(289.9922,12.0772)"
           id="g168"><path
             id="path170"
             style="fill:#293d60;fill-opacity:1;fill-rule:nonzero;stroke:none"
             d="m 0,0 v -5.887 c 0,-1.65 0.956,-1.542 2.889,-1.455 V -9.036 C -0.369,-9.471 -1.89,-8.602 -1.89,-5.887 V 0 h -2.15 v 1.825 h 2.15 V 4.301 L 0,4.866 V 1.825 H 2.889 V 0 Z" /></g><g
           transform="translate(295.2657,9.2534)"
           id="g172"><path
             id="path174"
             style="fill:#293d60;fill-opacity:1;fill-rule:nonzero;stroke:none"
             d="M 0,0 H 7.255 C 6.929,2.15 5.387,3.15 3.758,3.15 1.716,3.15 0.304,1.89 0,0 m 3.932,-4.714 c 1.498,0 2.584,0.696 3.128,1.586 L 8.667,-4.04 C 7.711,-5.517 6.06,-6.495 3.888,-6.495 c -3.497,0 -5.821,2.455 -5.821,5.713 0,3.215 2.302,5.713 5.691,5.713 3.28,0 5.409,-2.694 5.409,-5.735 0,-0.282 -0.022,-0.564 -0.066,-0.847 H 0 c 0.369,-1.955 1.911,-3.063 3.932,-3.063" /></g><g
           transform="translate(311.2238,14.0973)"
           id="g176"><path
             id="path178"
             style="fill:#293d60;fill-opacity:1;fill-rule:nonzero;stroke:none"
             d="m 0,0 v -1.977 c -1.629,0.066 -3.389,-0.76 -3.389,-3.323 v -5.756 h -1.889 v 10.861 h 1.889 V -2.02 C -2.693,-0.5 -1.368,0 0,0" /></g><g
           transform="translate(255.7015,146.4012)"
           id="g180"><path
             id="path182"
             style="fill:#7bb9d7;fill-opacity:1;fill-rule:nonzero;stroke:none"
             d="m 0,0 -0.034,-17.382 c 7.18,-1.901 14.192,-4.478 20.836,-7.8 l 10.051,6.147 z" /></g><g
           transform="translate(234.6326,132.5072)"
           id="g184"><path
             id="path186"
             style="fill:#b1d5dc;fill-opacity:1;fill-rule:nonzero;stroke:none"
             d="M 0,0 C 7.098,-0.518 14.152,-1.682 21.035,-3.489 L 21.07,13.894 -1.495,0.094 C -0.996,0.065 -0.497,0.037 0,0" /></g><g
           transform="translate(193.9231,146.522)"
           id="g188"><path
             id="path190"
             style="fill:#5698bc;fill-opacity:1;fill-rule:nonzero;stroke:none"
             d="m 0,0 -0.036,-18.296 c 7.456,2.181 15.136,3.578 22.878,4.204 z" /></g><g
           transform="translate(174.4703,120.529)"
           id="g192"><path
             id="path194"
             style="fill:#7bb9d7;fill-opacity:1;fill-rule:nonzero;stroke:none"
             d="M 0,0 C 6.185,3.169 12.715,5.781 19.416,7.697 L 19.451,25.993 -11.474,7.079 Z" /></g><g
           transform="translate(162.9696,113.6163)"
           id="g196"><path
             id="path198"
             style="fill:#92c8e6;fill-opacity:1;fill-rule:nonzero;stroke:none"
             d="M 0,0 C 3.625,2.533 7.514,4.875 11.501,6.913 L 0.027,13.992 Z" /></g><g
           transform="translate(188.0129,150.167)"
           id="g200"><path
             id="path202"
             style="fill:#5a8db5;fill-opacity:1;fill-rule:nonzero;stroke:none"
             d="M 0,0 C -9.225,-4.637 -17.755,-10.69 -25.007,-18.022 L -25.016,-22.56 5.909,-3.646 Z" /></g><g
           transform="translate(162.998,127.6074)"
           id="g204"><path
             id="path206"
             style="fill:#5488b1;fill-opacity:1;fill-rule:nonzero;stroke:none"
             d="M 0,0 0.009,4.539 C -0.921,3.604 -1.82,2.637 -2.7,1.665 Z" /></g><g
           transform="translate(206.6027,176.6926)"
           id="g208"><path
             id="path210"
             style="fill:#3b688d;fill-opacity:1;fill-rule:nonzero;stroke:none"
             d="m 0,0 c -1.827,0.131 -3.669,0.133 -5.505,0.093 0.02,-0.005 0.037,-0.007 0.057,-0.01 -2.18,-0.074 -4.449,-0.26 -6.829,-0.608 0,0 12.493,-6.67 15.948,-17.7 -5.556,-1.402 -11.081,-3.266 -16.339,-5.533 l -0.013,-6.413 30.928,18.914 z" /></g><g
           transform="translate(224.8618,171.8266)"
           id="g212"><path
             id="path214"
             style="fill:#2b4870;fill-opacity:1;fill-rule:nonzero;stroke:none"
             d="M 0,0 C -5.665,2.859 -11.926,4.469 -18.259,4.866 L -0.012,-6.391 Z" /></g><g
           transform="translate(230.1123,168.7212)"
           id="g216"><path
             id="path218"
             style="fill:#28375b;fill-opacity:1;fill-rule:nonzero;stroke:none"
             d="m 0,0 c -1.678,1.15 -3.426,2.195 -5.251,3.106 l -0.013,-6.392 5.314,3.25 C 0.033,-0.024 0.017,-0.012 0,0" /></g><g
           transform="translate(255.7018,146.4004)"
           id="g220"><path
             id="path222"
             style="fill:#2b4870;fill-opacity:1;fill-rule:nonzero;stroke:none"
             d="m 0,0 0.028,14.47 c -5.96,0.856 -12.035,1.284 -18.164,1.208 -2.148,2.523 -4.68,4.709 -7.403,6.607 l -5.314,-3.25 z" /></g><g
           transform="translate(255.7298,160.8703)"
           id="g224"><path
             id="path226"
             style="fill:#3b688d;fill-opacity:1;fill-rule:nonzero;stroke:none"
             d="M 0,0 -0.029,-14.47 17.324,-3.858 C 11.718,-2.133 5.918,-0.85 0,0" /></g><g
           transform="translate(286.5989,150.2611)"
           id="g228"><path
             id="path230"
             style="fill:#5ea2bc;fill-opacity:1;fill-rule:nonzero;stroke:none"
             d="M 0,0 C -4.131,2.921 -8.624,5.426 -13.545,6.751 L -30.897,-3.86 -0.046,-22.895 Z" /></g><g
           transform="translate(297.4293,134.8403)"
           id="g232"><path
             id="path234"
             style="fill:#5698bc;fill-opacity:1;fill-rule:nonzero;stroke:none"
             d="M 0,0 C -1.058,6.468 -5.637,11.711 -10.831,15.421 L -10.875,-7.475 0.114,-0.754 C 0.086,-0.501 0.047,-0.253 0,0" /></g><g
           transform="translate(295.519,121.8354)"
           id="g236"><path
             id="path238"
             style="fill:#7bb9d7;fill-opacity:1;fill-rule:nonzero;stroke:none"
             d="M 0,0 C 1.672,3.824 2.591,8.079 2.024,12.252 L -8.965,5.531 Z" /></g><g
           transform="translate(286.5549,127.3662)"
           id="g240"><path
             id="path242"
             style="fill:#b2d7ea;fill-opacity:1;fill-rule:nonzero;stroke:none"
             d="m 0,0 -10.051,-6.147 c 3.455,-1.702 6.796,-3.612 10.027,-5.705 z" /></g><g
           transform="translate(144.7371,103.9827)"
           id="g244"><path
             id="path246"
             style="fill:#7bb9d7;fill-opacity:1;fill-rule:nonzero;stroke:none"
             d="m 0,0 c -1.014,-2.705 -1.881,-5.451 -2.561,-8.238 0,0.002 0,0.005 0.003,0.007 -0.255,-1.038 -0.492,-2.073 -0.697,-3.119 2.202,3.07 4.647,6.024 7.318,8.843 z" /></g><g
           transform="translate(193.923,146.5215)"
           id="g248"><path
             id="path250"
             style="fill:#417593;fill-opacity:1;fill-rule:nonzero;stroke:none"
             d="M 0,0 0.013,6.414 C -1.992,5.549 -3.973,4.635 -5.909,3.646 Z" /></g><g
           transform="translate(224.8496,165.4352)"
           id="g252"><path
             id="path254"
             style="fill:#5789af;fill-opacity:1;fill-rule:nonzero;stroke:none"
             d="m 0,0 -0.064,-32.636 c 2.784,0.039 5.573,-0.025 8.352,-0.198 l 22.563,13.799 z" /></g><g
           transform="translate(224.8506,165.4354)"
           id="g256"><path
             id="path258"
             style="fill:#417593;fill-opacity:1;fill-rule:nonzero;stroke:none"
             d="m 0,0 -30.927,-18.914 22.841,-14.092 c 2.669,0.214 5.346,0.349 8.022,0.37 z" /></g><g
           transform="translate(295.4768,121.7343)"
           id="g260"><path
             id="path262"
             style="fill:#b1d5dc;fill-opacity:1;fill-rule:nonzero;stroke:none"
             d="M 0,0 C 0.014,0.033 0.028,0.068 0.042,0.101 L -8.923,5.632 -8.946,-6.221 c 4,-2.57 7.775,-5.481 11.348,-8.613 C 6.167,-9.489 0,0 0,0" /></g><g
           transform="translate(154.5023,122.4215)"
           id="g264"><path
             id="path266"
             style="fill:#b1d5dc;fill-opacity:1;fill-rule:nonzero;stroke:none"
             d="m 0,0 c -1.697,-2.342 -3.141,-4.663 -4.39,-6.875 l 0.026,0.024 c -1.201,-2.114 -2.317,-4.448 -3.535,-7.062 -0.637,-1.418 -1.304,-3.039 -1.866,-4.526 l 4.063,-2.507 0.376,0.382 c 4.154,4.321 8.846,8.324 13.793,11.758 L 8.496,5.186 Z" /></g><g
           transform="translate(162.998,127.6079)"
           id="g268"><path
             id="path270"
             style="fill:#92c8e6;fill-opacity:1;fill-rule:nonzero;stroke:none"
             d="M 0,0 -2.699,1.665 H -2.7 c -2.15,-2.146 -4.099,-4.509 -5.796,-6.851 z" /></g></g></g></g></svg>