<?xml version="1.0" encoding="UTF-8" standalone="no"?>
<svg
   xmlns:dc="http://purl.org/dc/elements/1.1/"
   xmlns:cc="http://creativecommons.org/ns#"
   xmlns:rdf="http://www.w3.org/1999/02/22-rdf-syntax-ns#"
   xmlns:svg="http://www.w3.org/2000/svg"
   xmlns="http://www.w3.org/2000/svg"
   xmlns:sodipodi="http://sodipodi.sourceforge.net/DTD/sodipodi-0.dtd"
   xmlns:inkscape="http://www.inkscape.org/namespaces/inkscape"
   version="1.1"
   id="svg2"
   xml:space="preserve"
   width="1066.6667"
   height="142.41333"
   viewBox="0 0 1066.6667 142.41333"
   sodipodi:docname="CFDome_logo_blanc.eps"><metadata
     id="metadata8"><rdf:RDF><cc:Work
         rdf:about=""><dc:format>image/svg+xml</dc:format><dc:type
           rdf:resource="http://purl.org/dc/dcmitype/StillImage" /></cc:Work></rdf:RDF></metadata><defs
     id="defs6" /><sodipodi:namedview
     pagecolor="#ffffff"
     bordercolor="#666666"
     borderopacity="1"
     objecttolerance="10"
     gridtolerance="10"
     guidetolerance="10"
     inkscape:pageopacity="0"
     inkscape:pageshadow="2"
     inkscape:window-width="640"
     inkscape:window-height="480"
     id="namedview4" /><g
     id="g10"
     inkscape:groupmode="layer"
     inkscape:label="ink_ext_XXXXXX"
     transform="matrix(1.3333333,0,0,-1.3333333,0,142.41333)"><g
       id="g12"
       transform="scale(0.1)"><path
         d="m 744.238,308 c -30.383,-30.488 -65.234,-53.922 -103.664,-69.609 -76.261,-30.883 -169.203,-31.578 -246.164,0 -38.226,15.586 -73.18,39.023 -103.762,69.707 -30.785,30.683 -54.418,65.933 -70.402,104.558 -16.285,38.828 -24.43,80.235 -24.43,122.934 0,42.797 8.145,83.906 24.43,122.336 15.887,38.23 39.617,73.179 70.402,103.867 30.582,30.687 65.536,54.418 103.965,70.402 77.356,32.473 169.602,31.977 245.762,0 38.527,-16.183 73.48,-39.82 103.863,-70.304 l 10.825,-10.825 138.722,138.625 -10.824,10.821 c -47.168,47.066 -102.477,84.5 -164.535,111.308 -123.93,53.63 -276.543,54.22 -402.653,0 C 253.109,984.918 197.703,947.68 151.133,901.211 104.363,854.238 67.1289,798.93 40.5156,736.668 13.6016,674.008 0,606.391 0,535.59 0,464.789 13.6016,397.164 40.5156,334.711 67.1289,272.352 104.363,217.039 151.133,170.074 197.805,123.402 253.211,86.1641 315.773,59.4492 378.328,32.5391 445.949,18.9414 516.852,18.9414 c 71.691,0 139.511,13.707 201.574,40.5078 62.058,26.7149 117.367,64.1528 164.637,111.3208 L 893.887,181.691 754.965,318.82 744.238,308"
         style="fill:#ffffff;fill-opacity:1;fill-rule:nonzero;stroke:none"
         id="path14" /><path
         d="m 1060.41,18.9414 h 202.57 V 434.406 h 421.12 l -50.54,202.465 h -370.58 v 213 h 502.94 V 1052.44 H 1060.41 V 18.9414"
         style="fill:#ffffff;fill-opacity:1;fill-rule:nonzero;stroke:none"
         id="path16" /><path
         d="m 2365.76,149.094 h -265.69 v 773.453 h 265.69 c 212.55,0 358.68,-168.27 358.68,-386.738 0,-218.446 -146.13,-386.715 -358.68,-386.715 z m 0,903.346 H 1962.79 V 19.1992 h 402.97 c 284.87,0 490.05,230.2738 490.05,516.6098 0,286.359 -205.18,516.631 -490.05,516.631"
         style="fill:#ffffff;fill-opacity:1;fill-rule:nonzero;stroke:none"
         id="path18" /><path
         d="m 3356.07,125.473 c -146.13,0 -259.79,113.668 -259.79,262.734 0,149.09 113.66,262.734 259.79,262.734 147.6,0 261.26,-113.644 261.26,-262.734 0,-149.066 -113.66,-262.734 -261.26,-262.734 z m 0,650.937 c -215.5,0 -388.2,-169.734 -388.2,-388.203 C 2967.87,169.762 3140.57,0 3356.07,0 c 215.51,0 389.69,169.762 389.69,388.207 0,218.469 -174.18,388.203 -389.69,388.203"
         style="fill:#ffffff;fill-opacity:1;fill-rule:nonzero;stroke:none"
         id="path20" /><path
         d="m 4694.76,776.41 c -95.95,0 -180.08,-41.332 -231.74,-125.469 -42.81,79.715 -116.61,125.469 -216.98,125.469 -90.04,0 -166.8,-35.422 -219.93,-118.09 v 98.914 H 3897.69 V 19.1992 h 128.42 V 429.543 c 0,159.426 90.04,224.355 188.93,224.355 95.95,0 156.47,-63.464 156.47,-180.066 V 19.1992 h 128.41 V 429.543 c 0,159.426 78.24,224.355 181.56,224.355 97.41,0 162.37,-63.464 162.37,-180.066 V 19.1992 h 128.41 V 478.254 c 0,184.516 -113.66,298.156 -277.5,298.156"
         style="fill:#ffffff;fill-opacity:1;fill-rule:nonzero;stroke:none"
         id="path22" /><path
         d="m 5240.78,441.34 c 20.66,128.426 116.61,214.051 255.35,214.051 110.7,0 215.51,-67.914 237.65,-214.051 z m 255.35,335.07 c -230.25,0 -386.72,-169.734 -386.72,-388.203 C 5109.41,166.805 5267.34,0 5504.99,0 c 147.61,0 259.79,66.4297 324.74,166.805 l -109.24,62 c -36.9,-60.535 -110.7,-107.754 -212.54,-107.754 -137.28,0 -242.07,75.265 -267.17,208.109 h 618.47 c 2.94,19.203 4.42,38.379 4.42,57.582 0,206.649 -144.64,389.668 -367.54,389.668"
         style="fill:#ffffff;fill-opacity:1;fill-rule:nonzero;stroke:none"
         id="path24" /><path
         d="M 7899.72,111.773 H 6353.06 v 82.688 c 0,426.406 346.92,773.324 773.33,773.324 312.42,0 581.97,-186.336 703.87,-453.609 5.27,-11.567 10.26,-23.278 14.97,-35.137 0.01,-0.023 0.02,-0.047 0.03,-0.07 4.71,-11.86 9.13,-23.86 13.26,-36 26.57,-78.055 41.2,-161.582 41.2,-248.508 z m -773.33,956.287 c -481.7,0 -873.6,-391.9 -873.6,-873.599 V 11.5 H 8000 v 182.961 c 0,481.699 -391.9,873.599 -873.61,873.599"
         style="fill:#ffffff;fill-opacity:1;fill-rule:nonzero;stroke:none"
         id="path26" /><path
         d="m 7835.53,471.285 c 0.56,-1.433 1.15,-2.851 1.7,-4.289 -0.45,1.652 -0.76,3.328 -1.23,4.977 -0.14,-0.235 -0.32,-0.453 -0.47,-0.688"
         style="fill:#ffffff;fill-opacity:1;fill-rule:nonzero;stroke:none"
         id="path28" /><path
         d="m 7271.28,345.828 c 156.76,44.762 284.23,159.227 347.05,307.496 -28.07,30.067 -58.89,57.512 -91.99,82.055 -40.87,-129.707 -142.67,-232.629 -271.87,-274.699 43.97,78.84 67.49,167.937 67.49,260.691 0,41.336 -5.17,81.801 -14.21,121.109 -40.65,11.395 -82.81,19.051 -126.15,22.586 16.47,-45.507 25.53,-93.851 25.53,-143.695 0,-67.863 -16.03,-133.23 -46.11,-191.933 -36.86,129.289 -121.2,238.589 -232.73,308.292 -48.21,-14.878 -94.05,-35.152 -136.99,-59.917 120.26,-44.668 214.92,-142.461 254.81,-264.965 -78.84,43.968 -167.93,67.48 -260.69,67.48 -87.85,0 -172.39,-21.176 -248.08,-60.754 -34.4,-62.074 -59.27,-130.109 -72.63,-202.156 7.17,8.387 14.59,16.633 22.52,24.566 79.65,79.653 185.55,123.52 298.19,123.52 67.87,0 144.24,-20.074 191.94,-46.109 47.7,-26.036 136.75,-121.586 224.85,-166.79 84.28,-43.246 204,-67.515 260.79,-67.515 56.43,0 112.72,9.32 166.87,26.961 57.3,18.664 111.96,47.148 161.48,85.562 -6.63,42.867 -17.3,84.387 -31.64,124.203 -132.36,-131.097 -330.58,-156.421 -488.43,-75.988"
         style="fill:#ffffff;fill-opacity:1;fill-rule:nonzero;stroke:none"
         id="path30" /></g></g></svg>
