<?xml version="1.0" encoding="UTF-8" standalone="no"?>
<svg
   xmlns:dc="http://purl.org/dc/elements/1.1/"
   xmlns:cc="http://creativecommons.org/ns#"
   xmlns:rdf="http://www.w3.org/1999/02/22-rdf-syntax-ns#"
   xmlns:svg="http://www.w3.org/2000/svg"
   xmlns="http://www.w3.org/2000/svg"
   xmlns:sodipodi="http://sodipodi.sourceforge.net/DTD/sodipodi-0.dtd"
   xmlns:inkscape="http://www.inkscape.org/namespaces/inkscape"
   version="1.1"
   id="svg2"
   xml:space="preserve"
   width="49.133331"
   height="49.133331"
   viewBox="0 0 49.133331 49.133331"
   sodipodi:docname="fabrication-europeenne.eps"><metadata
     id="metadata8"><rdf:RDF><cc:Work
         rdf:about=""><dc:format>image/svg+xml</dc:format><dc:type
           rdf:resource="http://purl.org/dc/dcmitype/StillImage" /></cc:Work></rdf:RDF></metadata><defs
     id="defs6"><clipPath
       clipPathUnits="userSpaceOnUse"
       id="clipPath20"><path
         d="M 259.766,0 H 108.738 C 48.9336,0 0,48.9336 0,108.738 v 151.028 c 0,59.804 48.9336,108.738 108.738,108.738 h 151.028 c 59.804,0 108.738,-48.934 108.738,-108.738 V 108.738 C 368.504,48.9336 319.57,0 259.766,0 Z"
         id="path18" /></clipPath><linearGradient
       x1="0"
       y1="0"
       x2="1"
       y2="0"
       gradientUnits="userSpaceOnUse"
       gradientTransform="matrix(299.056,299.056,299.056,-299.056,33.9809,33.981)"
       spreadMethod="pad"
       id="linearGradient26"><stop
         style="stop-opacity:1;stop-color:#113e74"
         offset="0"
         id="stop22" /><stop
         style="stop-opacity:1;stop-color:#00adef"
         offset="1"
         id="stop24" /></linearGradient></defs><sodipodi:namedview
     pagecolor="#ffffff"
     bordercolor="#666666"
     borderopacity="1"
     objecttolerance="10"
     gridtolerance="10"
     guidetolerance="10"
     inkscape:pageopacity="0"
     inkscape:pageshadow="2"
     inkscape:window-width="640"
     inkscape:window-height="480"
     id="namedview4" /><g
     id="g10"
     inkscape:groupmode="layer"
     inkscape:label="ink_ext_XXXXXX"
     transform="matrix(1.3333333,0,0,-1.3333333,0,49.133333)"><g
       id="g12"
       transform="scale(0.1)"><g
         id="g14"><g
           id="g16"
           clip-path="url(#clipPath20)"><path
             d="M 259.766,0 H 108.738 C 48.9336,0 0,48.9336 0,108.738 v 151.028 c 0,59.804 48.9336,108.738 108.738,108.738 h 151.028 c 59.804,0 108.738,-48.934 108.738,-108.738 V 108.738 C 368.504,48.9336 319.57,0 259.766,0"
             style="fill:url(#linearGradient26);fill-opacity:1;fill-rule:nonzero;stroke:none"
             id="path28" /></g></g><path
         d="M 10.8203,152.293 V 101.898 C 13.5547,51.0117 55.5586,10.5586 107.137,10.5586 h 154.23 c 51.571,0 93.574,40.4531 96.317,91.3394 v 50.395 H 10.8203"
         style="fill:#ffffff;fill-opacity:1;fill-rule:nonzero;stroke:none"
         id="path30" /><path
         d="m 357.922,162.008 h -4.531 v 92.168 c 0,54.75 -44.469,99.293 -99.125,99.293 H 114.238 c -54.656,0 -99.1247,-44.543 -99.1247,-99.293 v -92.168 h -4.5274 v 92.168 C 10.5859,311.426 57.082,358 114.238,358 h 140.028 c 57.156,0 103.656,-46.574 103.656,-103.824 v -92.168"
         style="fill:#fff200;fill-opacity:1;fill-rule:nonzero;stroke:none"
         id="path32" /><path
         d="m 185.031,326.57 1.938,-5.8 6.105,-0.055 c 0.793,0 1.121,-1.008 0.485,-1.481 l -4.918,-3.632 1.843,-5.821 c 0.239,-0.758 -0.617,-1.375 -1.261,-0.918 l -4.969,3.547 -4.973,-3.547 c -0.648,-0.457 -1.5,0.16 -1.261,0.918 l 1.843,5.821 -4.918,3.632 c -0.636,0.473 -0.312,1.481 0.485,1.481 l 6.109,0.055 1.934,5.8 c 0.25,0.746 1.308,0.746 1.558,0"
         style="fill:#ffffff;fill-opacity:1;fill-rule:nonzero;stroke:none"
         id="path34" /><path
         d="m 185.031,202.113 1.938,-5.8 6.105,-0.047 c 0.793,-0.004 1.121,-1.016 0.485,-1.481 l -4.918,-3.629 1.843,-5.832 c 0.239,-0.75 -0.617,-1.375 -1.261,-0.918 l -4.969,3.547 -4.973,-3.547 c -0.648,-0.457 -1.5,0.168 -1.261,0.918 l 1.843,5.832 -4.918,3.629 c -0.636,0.465 -0.312,1.477 0.485,1.481 l 6.109,0.047 1.934,5.8 c 0.25,0.746 1.308,0.746 1.558,0"
         style="fill:#ffffff;fill-opacity:1;fill-rule:nonzero;stroke:none"
         id="path36" /><path
         d="m 247.258,264.34 1.933,-5.797 6.114,-0.047 c 0.789,-0.008 1.117,-1.016 0.48,-1.492 l -4.918,-3.621 1.848,-5.828 c 0.234,-0.758 -0.621,-1.375 -1.266,-0.918 l -4.969,3.554 -4.972,-3.554 c -0.645,-0.457 -1.504,0.16 -1.266,0.918 l 1.848,5.828 -4.918,3.621 c -0.641,0.476 -0.309,1.484 0.48,1.492 l 6.11,0.047 1.937,5.797 c 0.242,0.75 1.313,0.75 1.559,0"
         style="fill:#ffffff;fill-opacity:1;fill-rule:nonzero;stroke:none"
         id="path38" /><path
         d="m 122.805,264.34 1.933,-5.797 6.11,-0.047 c 0.793,-0.008 1.125,-1.016 0.484,-1.492 l -4.918,-3.621 1.844,-5.828 c 0.238,-0.758 -0.617,-1.375 -1.262,-0.918 l -4.973,3.554 -4.972,-3.554 c -0.641,-0.457 -1.496,0.16 -1.262,0.918 l 1.848,5.828 -4.922,3.621 c -0.633,0.476 -0.305,1.484 0.488,1.492 l 6.106,0.047 1.937,5.797 c 0.25,0.75 1.309,0.75 1.559,0"
         style="fill:#ffffff;fill-opacity:1;fill-rule:nonzero;stroke:none"
         id="path40" /><path
         d="m 132.148,296.836 1.934,-5.797 6.109,-0.055 c 0.789,0 1.122,-1.007 0.485,-1.48 l -4.914,-3.633 1.84,-5.82 c 0.242,-0.758 -0.622,-1.383 -1.262,-0.918 l -4.973,3.555 -4.965,-3.555 c -0.648,-0.465 -1.511,0.16 -1.269,0.918 l 1.84,5.82 -4.91,3.633 c -0.637,0.473 -0.309,1.48 0.48,1.48 l 6.113,0.055 1.93,5.797 c 0.25,0.75 1.312,0.75 1.562,0"
         style="fill:#ffffff;fill-opacity:1;fill-rule:nonzero;stroke:none"
         id="path42" /><path
         d="m 239.926,234.609 1.937,-5.8 6.11,-0.043 c 0.785,-0.008 1.117,-1.02 0.476,-1.485 l -4.914,-3.629 1.844,-5.832 c 0.238,-0.754 -0.617,-1.375 -1.266,-0.914 l -4.968,3.555 -4.973,-3.555 c -0.637,-0.461 -1.496,0.16 -1.266,0.914 l 1.844,5.832 -4.914,3.629 c -0.633,0.465 -0.305,1.477 0.484,1.485 l 6.114,0.043 1.929,5.8 c 0.254,0.75 1.317,0.75 1.563,0"
         style="fill:#ffffff;fill-opacity:1;fill-rule:nonzero;stroke:none"
         id="path44" /><path
         d="m 217.152,319.605 1.934,-5.789 6.109,-0.046 c 0.789,-0.008 1.114,-1.016 0.477,-1.489 l -4.914,-3.633 1.844,-5.82 c 0.246,-0.758 -0.618,-1.383 -1.262,-0.926 l -4.973,3.563 -4.972,-3.563 c -0.637,-0.457 -1.497,0.168 -1.262,0.926 l 1.84,5.82 -4.914,3.633 c -0.629,0.473 -0.305,1.481 0.484,1.489 l 6.113,0.046 1.93,5.789 c 0.25,0.75 1.312,0.75 1.566,0"
         style="fill:#ffffff;fill-opacity:1;fill-rule:nonzero;stroke:none"
         id="path46" /><path
         d="m 154.926,211.832 1.929,-5.801 6.114,-0.039 c 0.789,-0.012 1.117,-1.023 0.476,-1.488 l -4.91,-3.629 1.844,-5.832 c 0.238,-0.754 -0.621,-1.375 -1.27,-0.914 l -4.964,3.551 -4.973,-3.551 c -0.645,-0.461 -1.504,0.16 -1.266,0.914 l 1.848,5.832 -4.918,3.629 c -0.637,0.465 -0.309,1.48 0.484,1.488 l 6.11,0.039 1.933,5.801 c 0.25,0.746 1.313,0.746 1.563,0"
         style="fill:#ffffff;fill-opacity:1;fill-rule:nonzero;stroke:none"
         id="path48" /><path
         d="m 238.363,296.836 -1.929,-5.797 -6.114,-0.055 c -0.789,0 -1.117,-1.007 -0.484,-1.48 l 4.914,-3.633 -1.844,-5.82 c -0.23,-0.758 0.629,-1.383 1.266,-0.918 l 4.973,3.555 4.968,-3.555 c 0.649,-0.465 1.508,0.16 1.266,0.918 l -1.844,5.82 4.914,3.633 c 0.641,0.473 0.309,1.48 -0.476,1.48 l -6.11,0.055 -1.937,5.797 c -0.246,0.75 -1.309,0.75 -1.563,0"
         style="fill:#ffffff;fill-opacity:1;fill-rule:nonzero;stroke:none"
         id="path50" /><path
         d="m 130.586,234.609 -1.93,-5.8 -6.113,-0.043 c -0.793,-0.008 -1.121,-1.02 -0.48,-1.485 l 4.91,-3.629 -1.84,-5.832 c -0.242,-0.754 0.621,-1.375 1.265,-0.914 l 4.969,3.555 4.973,-3.555 c 0.64,-0.461 1.5,0.16 1.262,0.914 l -1.84,5.832 4.914,3.629 c 0.637,0.465 0.304,1.477 -0.485,1.485 l -6.113,0.043 -1.93,5.8 c -0.25,0.75 -1.312,0.75 -1.562,0"
         style="fill:#ffffff;fill-opacity:1;fill-rule:nonzero;stroke:none"
         id="path52" /><path
         d="m 153.363,319.605 -1.933,-5.789 -6.114,-0.046 c -0.789,-0.008 -1.117,-1.016 -0.48,-1.489 l 4.918,-3.633 -1.848,-5.82 c -0.238,-0.758 0.621,-1.383 1.266,-0.926 l 4.969,3.563 4.968,-3.563 c 0.645,-0.457 1.508,0.168 1.266,0.926 l -1.84,5.82 4.91,3.633 c 0.641,0.473 0.313,1.481 -0.48,1.489 l -6.11,0.046 -1.929,5.789 c -0.25,0.75 -1.313,0.75 -1.563,0"
         style="fill:#ffffff;fill-opacity:1;fill-rule:nonzero;stroke:none"
         id="path54" /><path
         d="m 215.586,211.832 -1.93,-5.801 -6.113,-0.039 c -0.789,-0.012 -1.113,-1.023 -0.484,-1.488 l 4.921,-3.629 -1.847,-5.832 c -0.235,-0.754 0.625,-1.375 1.262,-0.914 l 4.972,3.551 4.973,-3.551 c 0.644,-0.461 1.508,0.16 1.262,0.914 l -1.844,5.832 4.914,3.629 c 0.637,0.465 0.312,1.48 -0.477,1.488 l -6.109,0.039 -1.934,5.801 c -0.254,0.746 -1.316,0.746 -1.566,0"
         style="fill:#ffffff;fill-opacity:1;fill-rule:nonzero;stroke:none"
         id="path56" /><g
         id="g58"
         transform="scale(10)"><text
           transform="matrix(1,0,0,-1,4.29102,8.78945)"
           style="font-variant:normal;font-weight:800;font-size:4.5px;font-family:Gilroy;-inkscape-font-specification:Gilroy-ExtraBold;writing-mode:lr-tb;fill:#113e74;fill-opacity:1;fill-rule:nonzero;stroke:none"
           id="text64"><tspan
             x="0 2.2050796 5.2650795 7.9650798 10.732579 11.992579 15.18252 18.017969 20.447969 21.70797 25.253969"
             y="0"
             sodipodi:role="line"
             id="tspan60">FABRICATION</tspan><tspan
             x="0.42539099 2.8103909 5.7353911 8.4580507 12.004051 14.659051 17.04405 19.42905 22.44405 25.459051"
             y="4.5"
             sodipodi:role="line"
             id="tspan62">EUROPÉENNE</tspan></text></g></g></g></svg>
