<?xml version="1.0" encoding="UTF-8" standalone="no"?>
<svg
   xmlns:dc="http://purl.org/dc/elements/1.1/"
   xmlns:cc="http://creativecommons.org/ns#"
   xmlns:rdf="http://www.w3.org/1999/02/22-rdf-syntax-ns#"
   xmlns:svg="http://www.w3.org/2000/svg"
   xmlns="http://www.w3.org/2000/svg"
   xmlns:sodipodi="http://sodipodi.sourceforge.net/DTD/sodipodi-0.dtd"
   xmlns:inkscape="http://www.inkscape.org/namespaces/inkscape"
   version="1.1"
   id="svg2"
   xml:space="preserve"
   width="49.133331"
   height="49.133331"
   viewBox="0 0 49.133331 49.133331"
   sodipodi:docname="systeme-brevete.eps"><metadata
     id="metadata8"><rdf:RDF><cc:Work
         rdf:about=""><dc:format>image/svg+xml</dc:format><dc:type
           rdf:resource="http://purl.org/dc/dcmitype/StillImage" /></cc:Work></rdf:RDF></metadata><defs
     id="defs6"><clipPath
       clipPathUnits="userSpaceOnUse"
       id="clipPath20"><path
         d="M 259.766,0 H 108.738 C 48.9336,0 0,48.9336 0,108.738 v 151.028 c 0,59.804 48.9336,108.738 108.738,108.738 h 151.028 c 59.804,0 108.738,-48.934 108.738,-108.738 V 108.738 C 368.504,48.9336 319.57,0 259.766,0 Z"
         id="path18" /></clipPath><linearGradient
       x1="0"
       y1="0"
       x2="1"
       y2="0"
       gradientUnits="userSpaceOnUse"
       gradientTransform="matrix(299.056,299.056,299.056,-299.056,33.9809,33.981)"
       spreadMethod="pad"
       id="linearGradient26"><stop
         style="stop-opacity:1;stop-color:#d24717"
         offset="0"
         id="stop22" /><stop
         style="stop-opacity:1;stop-color:#e28c80"
         offset="1"
         id="stop24" /></linearGradient></defs><sodipodi:namedview
     pagecolor="#ffffff"
     bordercolor="#666666"
     borderopacity="1"
     objecttolerance="10"
     gridtolerance="10"
     guidetolerance="10"
     inkscape:pageopacity="0"
     inkscape:pageshadow="2"
     inkscape:window-width="640"
     inkscape:window-height="480"
     id="namedview4" /><g
     id="g10"
     inkscape:groupmode="layer"
     inkscape:label="ink_ext_XXXXXX"
     transform="matrix(1.3333333,0,0,-1.3333333,0,49.133333)"><g
       id="g12"
       transform="scale(0.1)"><g
         id="g14"><g
           id="g16"
           clip-path="url(#clipPath20)"><path
             d="M 259.766,0 H 108.738 C 48.9336,0 0,48.9336 0,108.738 v 151.028 c 0,59.804 48.9336,108.738 108.738,108.738 h 151.028 c 59.804,0 108.738,-48.934 108.738,-108.738 V 108.738 C 368.504,48.9336 319.57,0 259.766,0"
             style="fill:url(#linearGradient26);fill-opacity:1;fill-rule:nonzero;stroke:none"
             id="path28" /></g></g><path
         d="m 261.367,10.5586 h -154.23 c -53.3401,0 -96.5784,43.2383 -96.5784,96.5784 v 0.043 H 357.945 v -0.043 c 0,-53.3401 -43.238,-96.5784 -96.578,-96.5784"
         style="fill:#ffffff;fill-opacity:1;fill-rule:nonzero;stroke:none"
         id="path30" /><path
         d="m 184.246,180.934 c -22.98,0 -41.683,18.707 -41.683,41.699 0,22.988 18.703,41.676 41.683,41.676 23,0 41.692,-18.688 41.692,-41.676 0,-22.992 -18.692,-41.699 -41.692,-41.699 m 26.27,-27.008 c -1.016,0.441 -2.129,0.461 -3.145,0.051 -1.016,-0.407 -1.82,-1.184 -2.226,-2.211 l -6.219,-14.602 -10.34,26.07 2.293,5.84 c 4.113,2.301 6.934,6.692 6.934,11.735 v 0.07 l 0.05,-0.035 c 2.629,-3.664 6.77,-5.61 10.985,-5.61 1.621,0 3.238,0.336 4.812,0.938 l 11.363,-28.617 z m -41.067,-16.742 -6.179,14.582 c -0.434,1.027 -1.247,1.804 -2.258,2.211 -0.481,0.179 -0.996,0.285 -1.496,0.285 -0.563,0 -1.125,-0.106 -1.633,-0.336 l -14.535,-6.371 11.422,28.672 c 1.566,-0.637 3.242,-0.973 4.894,-0.973 4.211,0 8.344,1.926 10.981,5.59 l 0.054,0.035 v -0.07 c 0,-6.547 4.641,-12.016 10.828,-13.289 z m 58.746,85.429 h -0.043 l 0.043,0.02 c 7.133,2.316 11.035,9.98 8.715,17.094 -2.316,7.132 -9.957,11.043 -17.09,8.707 h -0.047 l 0.028,0.019 c 4.406,6.07 3.066,14.567 -2.985,18.953 -6.066,4.407 -14.578,3.063 -18.976,-2.988 l -0.027,-0.055 v 0.071 c 0,7.488 -6.063,13.574 -13.567,13.574 -7.488,0 -13.547,-6.07 -13.547,-13.574 v -0.051 l -0.054,0.051 c -4.375,6.035 -12.883,7.379 -18.946,2.992 -6.054,-4.406 -7.41,-12.887 -2.992,-18.938 l 0.027,-0.054 -0.054,0.019 c -7.094,2.317 -14.766,-1.594 -17.09,-8.726 -2.313,-7.098 1.598,-14.758 8.723,-17.094 h 0.05 l -0.05,-0.02 c -7.125,-2.32 -11.036,-9.965 -8.723,-17.097 1.875,-5.735 7.176,-9.364 12.902,-9.364 1.406,0 2.789,0.215 4.188,0.657 h 0.054 l -0.027,-0.02 c -3.344,-4.617 -3.344,-10.582 -0.527,-15.148 l -16.032,-40.262 c -0.605,-1.559 -0.25,-3.293 0.938,-4.445 1.184,-1.149 2.945,-1.469 4.465,-0.813 l 19.828,8.707 8.441,-19.945 c 0.641,-1.504 2.11,-2.477 3.762,-2.477 h 0.059 c 1.636,0.016 3.105,1.043 3.718,2.567 l 10.832,27.254 10.829,-27.254 c 0.613,-1.524 2.074,-2.551 3.734,-2.567 h 0.043 c 1.625,0 3.121,0.989 3.762,2.477 l 8.437,19.945 19.844,-8.707 c 0.527,-0.23 1.09,-0.336 1.609,-0.336 h 0.129 c 2.231,0 4.063,1.84 4.063,4.07 0,0.875 -0.254,1.645 -0.715,2.301 l -15.668,39.399 c 2.871,4.562 2.887,10.597 -0.485,15.199 l -0.027,0.055 h 0.055 c 1.39,-0.442 2.808,-0.672 4.179,-0.672 5.739,0 11.055,3.644 12.922,9.379 2.328,7.132 -1.574,14.761 -8.707,17.097"
         style="fill:#ffffff;fill-opacity:1;fill-rule:nonzero;stroke:none"
         id="path32" /><path
         d="m 201.797,227.605 c -0.512,1.079 -1.645,1.094 -2.195,1.094 l -10.403,1.649 -4.414,9.308 c -0.531,1.098 -1.64,1.098 -2.164,0 l -4.402,-9.308 -10.403,-1.649 c -0.554,0 -1.109,-0.562 -1.109,-1.094 0,-0.55 0,-1.097 0.555,-1.097 l 7.668,-7.133 -1.641,-10.391 c 0,-0.566 0,-1.097 0.57,-1.097 0.543,-0.567 0,0 1.071,0 l 9.324,4.922 9.32,-4.922 h 0.555 0.543 c 0.543,0.531 0.543,0.531 0.543,1.097 l -1.641,10.391 7.676,7.133 c 0.547,0.547 0.547,1.097 0.547,1.097"
         style="fill:#ffffff;fill-opacity:1;fill-rule:nonzero;stroke:none"
         id="path34" /><g
         id="g36"
         transform="scale(10)"><text
           transform="matrix(1,0,0,-1,9.22578,29.5043)"
           style="font-variant:normal;font-weight:600;font-size:4.5px;font-family:Gilroy;-inkscape-font-specification:Gilroy-SemiBold;writing-mode:lr-tb;fill:#ffffff;fill-opacity:1;fill-rule:nonzero;stroke:none"
           id="text40"><tspan
             x="0 2.47949 5.0576205 7.5546904 9.9853497 12.37035 16.01535"
             y="0"
             sodipodi:role="line"
             id="tspan38">SYSTÈME</tspan></text></g><g
         id="g42"
         transform="scale(10)"><text
           transform="matrix(1,0,0,-1,9.41406,4.25117)"
           style="font-variant:normal;font-weight:800;font-size:4.5px;font-family:Gilroy;-inkscape-font-specification:Gilroy-ExtraBold;writing-mode:lr-tb;fill:#d24617;fill-opacity:1;fill-rule:nonzero;stroke:none"
           id="text46"><tspan
             x="0 2.7 5.4675002 7.8525 10.8225 13.2075 15.6375"
             y="0"
             sodipodi:role="line"
             id="tspan44">BREVETÉ</tspan></text></g></g></g></svg>
